<svg preserveAspectRatio="none" width="100%" height="100%" overflow="visible" style="display: block;" viewBox="0 0 36.0002 44.1666" fill="none" xmlns="http://www.w3.org/2000/svg">
<g id="Group 40">
<path id="Vector" d="M17.85 0.00417551C18.437 -0.0303996 18.2384 0.15253 18.5081 0.46674C18.98 1.0168 19.4103 1.51924 19.8081 2.13089C20.0861 2.49605 20.4389 2.83344 20.7208 3.19249C21.5018 4.18657 22.1681 5.08586 22.6846 6.24931C23.0182 7.00056 23.2719 7.42654 23.3968 8.29734C24.1166 8.29883 24.629 8.34185 25.3335 8.50321C26.2004 8.7 27.0753 8.97552 27.9632 9.04923C28.3891 9.0846 28.7769 9.01946 29.1586 8.82766C29.2729 8.77021 29.5175 8.6245 29.6405 8.63284C29.6338 8.733 29.4248 8.9227 29.3502 9.00102C28.4689 9.92407 27.9982 11.2562 28.0901 12.5302C28.1376 12.9593 28.0995 13.5462 28.1793 13.9596C28.43 15.256 28.3287 16.3603 27.5746 17.4884C27.2822 17.9262 26.5376 18.4792 25.983 18.5447C24.1376 18.7624 23.5431 16.32 24.4914 15.0809C25.2992 14.0202 26.7417 14.4302 26.9325 15.7682C27.0474 16.5742 26.2569 17.478 25.4294 16.9363C25.1519 16.7547 25.0882 16.0445 25.3752 15.8303C25.8162 15.5009 25.9142 15.9438 26.0838 16.1379L26.118 16.1089C26.2076 15.818 26.1186 15.4917 25.8461 15.3335C25.731 15.2677 25.5942 15.252 25.4673 15.2902C24.6561 15.5306 24.6093 17.4163 25.445 17.7068C25.6952 17.7937 25.9147 17.7912 26.1472 17.6806C26.6389 17.4468 26.9955 17.0431 27.1878 16.5375C27.4948 15.8056 27.6143 15.4248 27.5493 14.6475C27.4843 13.8749 27.3198 13.0738 27.3797 12.3005C27.4237 11.7313 27.5355 11.1162 27.7447 10.585C27.846 10.3287 27.9752 10.0932 28.0732 9.83828C26.5662 9.78938 25.1184 9.04875 23.5605 9.07916C23.6101 9.47841 23.7153 10.0812 23.7339 10.4653C23.825 12.3255 23.2886 14.1369 22.5882 15.8393C22.4994 16.0551 22.261 16.4615 22.1408 16.7134C22.7923 17.886 22.6813 19.4857 23.3436 20.6726C23.5659 21.071 23.8056 21.6001 24.0757 21.9559C24.2924 21.7565 24.4973 21.483 24.7103 21.2908C25.354 20.7108 26.3662 19.7843 27.1845 19.5216C29.066 18.9177 31.5826 19.2773 33.1085 20.5697C33.9068 21.2461 34.5146 22.9533 34.7119 23.9707C34.729 24.1635 34.6904 24.3973 34.706 24.5861C34.9602 27.687 33.6178 30.6681 30.6545 31.9564C30.3721 32.0791 30.0953 32.2497 29.7799 32.3298C29.0729 32.5094 28.343 32.5388 27.6176 32.5902C27.2881 33.4933 26.4214 34.5637 25.7323 35.2228C25.5156 35.4361 25.3258 35.7032 25.1161 35.9193C22.6355 38.4737 18.7611 40.1119 18.2186 44.0344C18.2079 44.1121 18.183 44.1295 18.1224 44.1666C18.0201 44.1666 17.9106 44.1612 17.8077 44.1582C17.682 43.4085 17.4183 42.4749 17.0365 41.8043C15.8896 39.8067 13.8747 38.5317 12.141 37.093C11.724 36.747 11.2911 36.2751 10.8771 35.9093C10.6826 35.7374 10.4883 35.4356 10.284 35.2377C9.59215 34.5663 8.70013 33.5097 8.39231 32.5917C7.84829 32.5311 6.91944 32.517 6.39826 32.3753C5.32592 32.0538 4.09631 31.3701 3.3094 30.5857C2.57879 29.8575 1.97056 28.8526 1.65822 27.8773C1.57651 27.6223 1.45189 27.3077 1.41845 27.0463C1.36005 26.4622 1.28262 25.8637 1.26415 25.2764C1.22412 24.0047 1.39047 23.0477 1.98233 21.9004C2.41497 21.0616 2.57454 20.7452 3.36475 20.2322C4.37583 19.5802 5.55366 19.2339 6.75679 19.2349C9.34218 19.2603 10.2107 20.221 11.9302 21.9657C12.1887 21.607 12.3903 21.1225 12.6224 20.7343C13.3186 19.5695 13.1987 17.8402 13.8692 16.7047C13.7316 16.435 13.5413 16.1211 13.4225 15.8541C13.2876 15.5503 13.1902 15.2168 13.0661 14.9114C12.8097 14.2803 12.6611 13.7326 12.5242 13.0729C12.3472 12.22 12.1975 11.3801 12.2601 10.5001C12.2931 10.0354 12.3776 9.54031 12.4409 9.07811C10.944 9.05207 9.49709 9.73963 7.93023 9.84759C8.04033 10.1138 8.16907 10.3591 8.27027 10.6319C8.5039 11.2618 8.62543 12.0408 8.63369 12.7099C8.64623 13.7213 8.23359 14.8539 8.54856 15.8354C8.79337 16.5982 9.04825 17.253 9.79339 17.6559C9.99965 17.7682 10.2869 17.8025 10.5087 17.7227C11.1919 17.4767 11.298 16.4359 11.0463 15.8452C10.9003 15.5029 10.5616 15.139 10.1596 15.3151C9.90899 15.4248 9.78948 15.8913 9.91042 16.1302C10.0235 16.1094 10.0765 15.5541 10.5007 15.7614C10.6415 15.83 10.7484 15.9528 10.797 16.1016C10.8645 16.3063 10.8421 16.5301 10.7354 16.7174C10.4702 17.1835 9.99067 17.2236 9.56808 16.9314C8.60755 16.2674 9.13326 14.5909 10.234 14.4827C11.2795 14.3799 11.8599 15.382 11.9428 16.2818C12.1151 18.1537 10.4077 19.3115 8.90342 17.9933C8.46489 17.6614 8.28805 17.258 8.06222 16.7883C7.59873 15.8241 7.64181 15.0905 7.80481 14.0487C7.8818 13.4439 7.88764 12.8632 7.91171 12.2523C7.95558 11.1388 7.49518 9.92747 6.7485 9.10353C6.64217 8.98618 6.36978 8.77469 6.35656 8.63051C6.45208 8.59877 6.61664 8.71427 6.70612 8.76627C7.83507 9.42245 9.32938 8.77758 10.5128 8.5347C11.288 8.37561 11.8018 8.30269 12.5996 8.29721C12.6351 8.08546 12.6809 7.8756 12.7369 7.66835C12.8805 7.13417 13.0298 6.81617 13.2802 6.33087C13.443 6.02267 13.5698 5.66779 13.7467 5.36971C14.2747 4.47999 14.9232 3.62643 15.5884 2.83451C15.7765 2.61046 15.9952 2.40612 16.1675 2.1713C16.3268 1.95655 16.4624 1.71856 16.627 1.50808C16.9494 1.09596 17.3216 0.708829 17.6079 0.269085C17.6992 0.128997 17.7015 0.0895339 17.85 0.00417551ZM14.968 27.5533C14.458 28.6337 13.1592 30.3732 12.3373 31.2678C12.0543 31.5758 11.1986 32.1226 10.791 32.2646C10.2903 32.4393 9.7651 32.4853 9.24489 32.5948C9.45854 33.0628 10.0044 33.8012 10.3554 34.19C10.7226 34.597 11.1467 34.976 11.491 35.4175C11.6604 35.6162 11.9311 35.7927 12.1145 35.9797C12.499 36.3715 12.8886 36.6825 13.3243 37.0165C13.465 37.1329 13.6438 37.2889 13.7887 37.3923C13.8101 37.0032 13.8408 36.7569 14.1544 36.4853C14.704 36.0091 15.3706 35.9694 16.0094 36.2505C16.1829 35.8224 16.3885 35.5558 16.7953 35.318C17.1492 35.1113 17.4979 34.8867 17.6629 34.4921C17.7618 34.2555 17.7398 33.9087 18.1019 33.9665C18.2431 34.1455 18.3955 34.676 18.5579 34.8389C19.208 35.4919 19.5883 35.277 19.9994 36.2564C20.7425 35.9124 21.6872 36.0587 22.1224 36.8457C22.1781 36.9465 22.2206 37.2692 22.2477 37.4015L22.2725 37.3754C22.6112 37.0227 23.0635 36.7638 23.4085 36.437C23.9813 35.895 24.5714 35.407 25.0588 34.7832C25.2079 34.5921 25.4824 34.4 25.6369 34.1997C25.9794 33.8002 26.5537 33.0577 26.7637 32.5917C26.3158 32.518 25.687 32.4431 25.2616 32.2858C23.439 31.6121 22.3746 29.6739 21.3595 28.1321C21.2478 27.9623 21.1303 27.6883 21.0216 27.5466C20.6118 28.2653 20.1956 28.9012 19.8439 29.6562C19.4528 30.4954 18.8803 31.2939 18.495 32.141C18.4385 32.2653 18.3761 32.384 18.3336 32.5145C18.2604 32.704 18.144 33.291 18.0251 33.4117C17.8535 33.3675 17.8008 32.8856 17.7382 32.7135C17.3092 31.5336 16.5577 30.5261 16.032 29.3854C15.7817 28.8424 15.3092 28.0538 14.968 27.5533ZM15.4021 26.7041C15.9391 27.6454 16.5375 28.5531 16.9797 29.5429C17.1037 29.8207 17.3209 30.1 17.4399 30.3865C17.5648 30.6064 17.9147 31.6149 18.0096 31.6794L18.0275 31.6755C18.2828 31.0653 18.4656 30.4898 18.8099 29.9128C19.0002 29.5936 19.275 29.0396 19.4279 28.6981C19.5858 28.3459 20.5545 26.9484 20.5642 26.6811C20.4675 26.4811 20.3389 26.2754 20.2181 26.0892C19.8812 25.5734 19.6216 25.0173 19.3289 24.4779C19.2788 24.3853 19.0471 24.0162 18.9813 23.9382C18.7189 23.628 18.2406 22.3788 17.9851 22.1943C17.5195 22.9821 17.1631 23.7857 16.6352 24.5459C16.4071 24.8743 16.2411 25.4248 15.9857 25.7616C15.8047 26.0696 15.5698 26.4079 15.4021 26.7041ZM27.9647 31.775C28.2484 31.7638 28.5421 31.7216 28.8137 31.7147C29.5796 31.5891 29.8976 31.4727 30.5877 31.1085C31.4235 30.6673 32.1372 30.1875 32.6761 29.3887C33.2295 28.626 33.5472 27.9438 33.7782 27.0236C33.8454 26.7566 33.8582 26.368 33.8884 26.0885C33.938 25.6276 33.9682 25.1838 33.9314 24.7183C33.9132 24.4899 33.9519 24.0569 33.8999 23.8461C33.7019 23.0442 33.3331 22.1403 32.8608 21.459C32.7329 21.2748 32.5725 21.156 32.4091 21.0284C31.6023 20.3988 30.2698 20.0109 29.2565 20.0142C28.8327 20.0209 27.9944 20.0835 27.5963 20.2151C26.7338 20.5004 25.7599 21.3636 25.1127 21.998C24.9695 22.1384 24.6699 22.4681 24.5643 22.6185C24.7029 22.8406 24.884 22.9965 25.0646 23.1821C25.5189 23.649 25.9855 24.085 26.4864 24.5014C26.6941 24.6741 26.8936 25.0048 27.0799 25.2058C27.4229 25.6301 27.9256 26.478 28.1011 27.0077C28.4958 28.1999 28.4331 29.6821 28.2044 30.9046C28.154 31.1732 28.0468 31.5131 27.9647 31.775ZM12.4777 22.6002C13.0018 23.2338 13.5037 23.8364 13.9863 24.505C14.2873 24.9222 14.6399 25.5956 14.9488 25.969L15.212 25.5115C15.4731 25.072 15.7043 24.6365 15.9345 24.1804C16.0981 23.8561 16.3762 23.5318 16.539 23.2095C16.8278 22.6378 17.1441 22.0991 17.4553 21.5422C17.1664 21.0639 16.8957 20.7295 16.5151 20.3251C16.339 20.138 16.1872 19.847 16.0099 19.6507C15.6565 19.2295 15.3026 18.8284 14.9671 18.3916C14.873 18.2692 14.4045 17.5958 14.3361 17.5558C14.1147 18.2763 14.0283 19.0697 13.8121 19.7998C13.7423 20.0355 13.7044 20.3176 13.6108 20.5499C13.3817 21.0566 13.0455 21.5698 12.7861 22.0688C12.6919 22.25 12.5663 22.4018 12.4777 22.6002ZM23.5288 22.5973C23.1937 21.9629 22.7483 21.2753 22.4257 20.6179C22.2167 20.192 21.7619 17.6419 21.6317 17.5594C21.1137 18.2978 20.5816 18.9857 19.9823 19.6618C19.8111 19.8549 19.6679 20.1079 19.5021 20.3093C19.1033 20.7319 18.8462 21.0491 18.5454 21.5513C18.8491 22.0633 19.1402 22.5702 19.4031 23.1051C19.5768 23.4583 19.8738 23.807 20.0462 24.1515C20.2913 24.6413 20.5402 25.0894 20.8149 25.5629L21.0684 25.9726C21.4048 25.4736 21.71 24.9549 22.0487 24.4577C22.4922 23.806 23.0568 23.2176 23.5288 22.5973ZM8.03462 31.7681C7.94632 31.4525 7.84642 31.143 7.78173 30.8213C7.54478 29.6429 7.49438 28.1262 7.90349 26.9824C8.01871 26.6601 8.18731 26.3489 8.35494 26.0509C8.65242 25.5219 9.03413 25.0268 9.44437 24.5797C9.69716 24.304 11.4628 22.8656 11.3873 22.5832C11.3435 22.4193 11.1198 22.2334 11.002 22.1143C10.3886 21.4944 9.66439 20.829 8.88786 20.423C8.25625 20.0926 7.47732 20.0179 6.7703 20.0145C5.6469 20.0239 4.12332 20.4485 3.30776 21.2671C2.78047 21.7964 2.25261 23.1783 2.08825 23.9011C2.08575 24.3203 2.03471 24.8754 2.04456 25.2854C2.08076 26.7952 2.34342 27.9825 3.2202 29.2398C4.04998 30.4299 5.06983 31.041 6.39979 31.5563C6.61792 31.641 6.97789 31.6832 7.21292 31.7142C7.45456 31.7326 7.80007 31.7697 8.03462 31.7681ZM13.1995 9.23303C13.1486 9.91832 12.9996 10.5646 13.0481 11.2648C13.1614 12.898 13.6856 14.7908 14.5098 16.2095C14.6787 15.9969 14.7993 15.8176 14.949 15.5933C15.5602 14.5794 15.8299 12.7733 15.6029 11.6034C15.3991 10.553 14.3159 9.34061 13.1995 9.23303ZM19.001 40.6314C19.3829 39.993 19.924 39.409 20.4422 38.8788C21.128 38.1777 21.4578 38.2054 21.4158 37.1549C21.1378 36.9063 20.9797 36.8557 20.5947 36.8636C20.4619 36.9045 20.2345 37.0677 20.1414 37.1777C19.2323 38.2509 19.01 39.8873 18.6552 41.1703C18.8045 40.9843 18.8885 40.8436 19.001 40.6314ZM22.7342 9.23523C21.9001 9.39918 21.3319 9.86046 20.8663 10.5564C20.3192 11.3741 20.2537 12.1203 20.3491 13.0738C20.445 14.0314 20.566 14.8184 21.0915 15.6523C21.2196 15.8492 21.336 16.031 21.5023 16.199C22.5102 14.4011 23.1949 11.849 22.8573 9.78381C22.8335 9.63906 22.8325 9.36437 22.7818 9.25372L22.7342 9.23523ZM22.6465 8.44914C22.4557 7.65855 22.3306 7.35442 21.9968 6.62841C21.4734 5.48995 20.8464 4.61964 20.0713 3.64065C19.8147 3.31661 19.4883 3.0089 19.2307 2.68223C19.0427 2.40824 18.2322 1.25175 17.9813 1.09172C17.8232 1.29792 17.3901 1.76038 17.2902 1.93282C16.9111 2.58703 16.4302 3.01191 15.9825 3.57346C14.9113 4.9172 13.6581 6.73118 13.3714 8.45277C14.4953 8.68765 15.2384 9.26101 15.8541 10.2188C16.4132 11.0884 16.5107 11.8855 16.4405 12.8904C16.4216 13.1612 16.3735 13.5419 16.3747 13.7979C16.6441 13.4277 16.8299 13.0266 17.0559 12.6264C17.2546 12.2746 17.4952 11.9424 17.6261 11.5535C17.6524 11.4753 17.8353 11.3956 17.9261 11.3808C17.9616 11.3753 17.9972 11.371 18.033 11.3677C18.1375 11.3867 18.2945 11.4176 18.339 11.5173C18.5211 11.9257 18.7608 12.3132 18.9851 12.6964C19.21 13.0809 19.3666 13.4385 19.64 13.7881C19.4686 12.1733 19.3816 11.1231 20.4739 9.76721C21.0372 9.06788 21.7519 8.6137 22.6465 8.44914ZM15.2194 36.8669C14.9146 36.9014 14.8334 36.9291 14.5899 37.1378C14.5252 38.1514 14.8874 38.2171 15.542 38.865C16.1278 39.4448 16.6351 40.0165 17.0545 40.7293C17.1525 40.903 17.2098 40.9971 17.327 41.1572C17.2005 40.3659 16.9227 39.4732 16.694 38.6977C16.5499 38.2092 15.8749 36.7672 15.2194 36.8669ZM17.9876 35.0376C17.888 35.1842 17.815 35.2926 17.6938 35.4198C17.3116 35.8211 16.6322 36.228 16.7574 36.8718C16.8657 37.4286 17.2346 37.8197 17.404 38.3489C17.5597 38.8348 17.6853 39.3346 17.825 39.8252C17.8588 39.9441 17.9538 40.3674 18.0012 40.4464L18.0214 40.4569C18.197 39.7016 18.4022 38.9318 18.6477 38.1956C18.8296 37.6509 19.5333 36.9357 19.1545 36.3254C18.9268 35.9582 18.5761 35.6845 18.2777 35.3783C18.2027 35.3011 18.0361 35.0768 17.9876 35.0376ZM21.0917 16.9622C20.3002 16.0565 19.5645 15.1032 18.889 14.1079C18.6564 13.7575 18.2031 12.8127 17.9924 12.5999C17.6302 13.1149 17.4165 13.6709 17.0306 14.2268C16.5796 14.8706 16.1108 15.5018 15.6247 16.1196C15.4138 16.3824 15.0932 16.7187 14.912 16.9618C15.3209 17.6559 16.0851 18.5084 16.6015 19.1348C16.7949 19.3694 16.9821 19.6528 17.1689 19.8745C17.4978 20.2649 17.7369 20.4709 18.004 20.9249C18.2815 20.449 18.5099 20.2594 18.8506 19.8549C19.0391 19.6309 19.2236 19.3363 19.4287 19.0947C19.938 18.4952 20.6965 17.6289 21.0917 16.9622ZM24.0102 23.2417C23.2789 24.1226 22.5897 24.9899 22.0054 25.9749C21.8609 26.2187 21.644 26.4941 21.5215 26.7415C21.9714 27.8863 23.3648 29.7639 24.2082 30.698C24.3893 30.8985 25.0933 31.3714 25.3598 31.487C25.38 31.496 25.4005 31.5044 25.421 31.5126C25.82 31.6451 26.6545 31.8057 27.0835 31.8239C27.5564 31.0085 27.6708 29.093 27.5669 28.1541C27.4454 27.0555 26.7414 25.936 25.9981 25.1447C25.8085 24.9429 25.5041 24.7073 25.288 24.5014C24.8567 24.0871 24.4307 23.6671 24.0102 23.2417ZM11.9751 23.2396C11.5287 23.7036 11.0719 24.1577 10.6052 24.6012C10.4168 24.7771 10.1704 24.97 9.99883 25.1434C9.83969 25.304 9.6133 25.6038 9.47228 25.7887C8.63208 26.8903 8.33645 27.9157 8.39252 29.2971C8.4192 29.9542 8.5879 31.2832 8.9224 31.8336C9.3762 31.7845 10.2034 31.6581 10.6138 31.4901C11.3246 31.187 12.0442 30.5113 12.4873 29.8867C13.123 28.991 14.0997 27.7561 14.4916 26.7415C13.8353 25.6974 13.2004 24.6968 12.412 23.7466C12.3259 23.643 12.0596 23.3044 11.9751 23.2396Z" fill="var(--fill-0, #AE1919)"/>
<path id="Vector_2" d="M20.3368 30.4441C20.5376 30.3707 20.7597 30.4748 20.8315 30.6761C20.9034 30.8771 20.7975 31.0983 20.5959 31.1687C20.3964 31.2383 20.178 31.1339 20.1068 30.9349C20.0357 30.7359 20.1386 30.5167 20.3368 30.4441Z" fill="var(--fill-0, #AE1919)"/>
<path id="Vector_3" d="M15.5037 30.4235C15.7126 30.4081 15.8953 30.5631 15.9138 30.7719C15.9323 30.9806 15.7797 31.1652 15.5712 31.1867C15.4338 31.2008 15.2994 31.1399 15.2195 31.0271C15.1397 30.9143 15.1266 30.7675 15.1855 30.6424C15.2443 30.5176 15.3659 30.434 15.5037 30.4235Z" fill="var(--fill-0, #AE1919)"/>
<path id="Vector_4" d="M9.3494 21.5993C9.55679 21.5687 9.75082 21.7088 9.78699 21.9153C9.82316 22.1217 9.68832 22.3194 9.48289 22.3611C9.34498 22.3892 9.20275 22.3401 9.11143 22.233C9.02013 22.126 8.99417 21.9778 9.04364 21.8461C9.09309 21.7143 9.2102 21.6198 9.3494 21.5993Z" fill="var(--fill-0, #AE1919)"/>
<path id="Vector_5" d="M26.5476 21.5988C26.7592 21.5714 26.9531 21.7208 26.9802 21.9324C27.0073 22.144 26.8579 22.3375 26.6461 22.3646C26.4348 22.3916 26.2414 22.2422 26.2143 22.0309C26.1872 21.8195 26.3363 21.6261 26.5476 21.5988Z" fill="var(--fill-0, #AE1919)"/>
<path id="Vector_6" d="M15.3792 6.71216C15.8208 6.74119 16.2597 6.70812 16.7013 6.71602C17.1698 6.72439 17.6318 6.78181 18.1031 6.78235C18.5551 6.78288 20.6627 6.59361 20.9395 6.80887C21.0308 6.87977 21.083 6.98937 21.0901 7.10388C21.096 7.19982 21.073 7.3045 21.006 7.37645C20.9085 7.48101 20.7758 7.49078 20.6415 7.49943C20.2762 7.55224 19.7625 7.48909 19.3816 7.50209C18.9895 7.51544 18.6078 7.55662 18.2166 7.56905C17.7222 7.58475 17.2278 7.53352 16.7369 7.50636C16.444 7.49014 15.2787 7.56406 15.0966 7.45213C15.0029 7.39533 14.9372 7.30197 14.9154 7.19462C14.8474 6.85903 15.1003 6.74851 15.3792 6.71216Z" fill="var(--fill-0, #AE1919)"/>
<path id="Vector_7" d="M15.2258 5.50444C15.4893 5.49006 15.9141 5.55332 16.2104 5.5548L19.548 5.55784C20.0468 5.55401 21.1961 5.26795 21.0634 5.97299C21.0306 6.14607 20.9124 6.20423 20.7689 6.25651C19.7526 6.39404 18.6393 6.32907 17.6004 6.33999C16.8366 6.31513 16.0311 6.40273 15.2788 6.2583C14.8243 6.171 14.8026 5.70796 15.2258 5.50444Z" fill="var(--fill-0, #AE1919)"/>
<path id="Vector_8" d="M15.4202 7.98672C15.5841 7.98874 15.7599 8.02242 15.9311 8.01731C16.2182 8.01191 16.5058 7.98357 16.7931 7.98188C17.403 7.97833 18.0095 8.01871 18.6197 7.98482C18.7775 7.98265 18.9382 7.97694 19.096 7.98058C19.6053 7.99224 20.1069 8.03352 20.617 8.00283C20.7774 7.99319 20.9329 8.11115 20.9767 8.26262C21.0071 8.36712 21.0089 8.52557 20.9444 8.62174C20.8639 8.73814 20.7321 8.753 20.6024 8.76669C19.9711 8.8382 19.503 8.75518 18.8814 8.75669C18.5987 8.73912 18.2459 8.82063 17.9743 8.79766C17.242 8.73577 16.5288 8.77835 15.7991 8.79902C15.579 8.80526 15.0537 8.78981 15.0079 8.51112C14.9517 8.16839 15.1147 8.0546 15.4202 7.98672Z" fill="var(--fill-0, #AE1919)"/>
<path id="Vector_9" d="M17.8813 2.43629C17.9789 2.43015 18.1579 2.41143 18.2355 2.47673C18.5494 2.79355 18.843 3.54191 18.919 3.97572C19.0303 4.60937 18.7617 5.1615 18.0822 5.23153C16.8941 5.34136 16.9123 3.95291 17.3229 3.23031C17.4918 2.93305 17.5056 2.593 17.8813 2.43629Z" fill="var(--fill-0, #AE1919)"/>
<path id="Vector_10" d="M12.088 25.8488C12.2885 25.7772 12.5091 25.8816 12.5807 26.0821C12.6524 26.2826 12.5478 26.5031 12.3473 26.5747C12.1468 26.6463 11.9263 26.5417 11.8547 26.3414C11.7832 26.1409 11.8876 25.9204 12.088 25.8488Z" fill="var(--fill-0, #AE1919)"/>
<path id="Vector_11" d="M23.669 25.8458C23.801 25.8046 23.9447 25.8378 24.0453 25.9325C24.1458 26.0274 24.1875 26.1691 24.1543 26.3031C24.121 26.4371 24.0182 26.543 23.8849 26.5798C23.6836 26.6356 23.4746 26.5195 23.4157 26.319C23.3566 26.1184 23.4695 25.9077 23.669 25.8458Z" fill="var(--fill-0, #AE1919)"/>
<path id="Vector_12" d="M17.9139 17.6582C18.0532 17.627 18.1984 17.6729 18.2944 17.7785C18.3902 17.884 18.4222 18.033 18.3777 18.1685C18.3334 18.3041 18.2195 18.4054 18.0797 18.4337C17.8666 18.4769 17.6585 18.3405 17.6131 18.1279C17.5677 17.9154 17.7019 17.7059 17.9139 17.6582Z" fill="var(--fill-0, #AE1919)"/>
<path id="Vector_13" d="M17.9447 25.8214C18.1559 25.7907 18.3534 25.9337 18.3897 26.1442C18.4257 26.3545 18.2879 26.5555 18.0786 26.5974C17.9382 26.6253 17.7936 26.5752 17.701 26.466C17.6083 26.3568 17.5823 26.2059 17.633 26.0718C17.6836 25.9381 17.803 25.8421 17.9447 25.8214Z" fill="var(--fill-0, #AE1919)"/>
<path id="Vector_14" d="M20.645 21.6484C20.7778 21.6048 20.9239 21.6367 21.0264 21.7318C21.1293 21.8268 21.1722 21.97 21.139 22.1058C21.1057 22.2417 21.0014 22.3488 20.8663 22.3856C20.665 22.4407 20.4562 22.325 20.3961 22.125C20.336 21.9249 20.4465 21.7135 20.645 21.6484Z" fill="var(--fill-0, #AE1919)"/>
<path id="Vector_15" d="M15.1054 21.6523C15.3066 21.5779 15.5298 21.6817 15.6023 21.8836C15.6749 22.0854 15.5688 22.3076 15.3663 22.3781C15.1665 22.4478 14.9479 22.3435 14.8764 22.1444C14.8048 21.9453 14.907 21.7257 15.1054 21.6523Z" fill="var(--fill-0, #AE1919)"/>
<path id="Vector_16" d="M14.2972 11.7194C14.878 11.6814 15.0153 12.0207 15.0376 12.5317C14.901 12.8078 14.8202 12.8626 14.5474 12.9834C13.8765 13.0963 13.4947 12.1394 14.2972 11.7194Z" fill="var(--fill-0, #AE1919)"/>
<path id="Vector_17" d="M21.4457 11.7193C22.2016 11.6606 22.4707 12.6423 21.6815 12.9915C20.8982 13.0337 20.6626 12.0614 21.4457 11.7193Z" fill="var(--fill-0, #AE1919)"/>
<path id="Vector_18" d="M1.46088 12.0162C2.32538 11.9531 3.07842 12.6001 3.14605 13.4642C3.21371 14.3282 2.57057 15.0845 1.70681 15.1567C0.836558 15.2295 0.0732069 14.5805 0.00503459 13.71C-0.0631122 12.8395 0.589935 12.0797 1.46088 12.0162Z" fill="var(--fill-0, #AE1919)"/>
<path id="Vector_19" d="M35.8693 13.008C36.0926 13.2119 35.9903 14.0132 35.8568 14.2668C35.1937 15.5277 33.4041 15.4439 32.9183 14.0668C32.8142 13.7365 32.8472 13.4181 32.9096 13.0862C32.9813 13.3201 33.0442 13.5176 33.1898 13.7188C33.4179 14.0352 33.763 14.2475 34.1485 14.3086C35.0323 14.4423 35.7373 13.8862 35.8693 13.008Z" fill="var(--fill-0, #AE1919)"/>
<path id="Vector_20" d="M23.5456 17.6609C23.6817 17.6211 23.8285 17.6589 23.9285 17.7595C24.0283 17.8601 24.0651 18.0074 24.0245 18.1431C23.9835 18.2789 23.8718 18.3815 23.7329 18.4104C23.5297 18.4527 23.3294 18.327 23.2791 18.1257C23.2287 17.9244 23.3463 17.7193 23.5456 17.6609Z" fill="var(--fill-0, #AE1919)"/>
<path id="Vector_21" d="M12.2768 17.656C12.4839 17.6169 12.6838 17.7519 12.7249 17.9586C12.766 18.1652 12.6329 18.3664 12.4267 18.4095C12.2175 18.4532 12.0129 18.318 11.9712 18.1084C11.9295 17.8989 12.0668 17.6956 12.2768 17.656Z" fill="var(--fill-0, #AE1919)"/>
</g>
</svg>
