<svg preserveAspectRatio="none" width="100%" height="100%" overflow="visible" style="display: block;" viewBox="0 0 137.144 354.199" fill="none" xmlns="http://www.w3.org/2000/svg">
<g id="Group 44">
<path id="Vector" d="M11.3201 275.614C2.75208 264.671 0.668609 259.599 6.25286 246.041C10.3608 236.067 16.794 238.481 19.3682 247.531C22.3984 258.179 20.3503 265.531 15.2122 274.86C17.0848 278.129 18.8657 281.032 21.4467 283.81C23.293 285.797 24.6901 286.764 26.2357 289.026C31.7556 282.975 38.9544 278.181 47.4132 280.815C51.0182 281.938 53.0397 283.978 55.7083 286.468C57.684 284.189 64.7952 276.543 64.9208 273.976L65.1264 273.526C66.0553 274.855 66.9879 276.067 68.1224 277.23L68.3241 278.456L67.144 277.279C66.1885 277.619 58.1599 287.584 57.2615 288.953C60.3412 291.917 65.4119 296.814 68.0538 300.101C70.1971 296.386 72.2109 294 75.1802 290.923C76.1243 289.948 77.175 289.033 77.1103 287.638L77.1331 287.301L78.1686 287.235L78.5417 286.797C78.0087 285.192 76.9771 284.829 75.5952 283.256L75.6904 282.471C77.1598 283.65 78.8729 285.815 79.8094 286.037C81.1379 285.663 81.5338 285.374 82.7482 284.678C81.3321 287.779 77.8679 286.439 78.0468 289.213C80.4984 289.922 80.94 286.514 83.6162 286.592C82.7939 287.61 82.1924 288.012 82.0097 289.17C83.6048 291.614 89.5358 292.943 92.2234 293.788C98.0708 295.627 102.277 291.968 106.05 287.379L107.39 288.182C107.31 288.531 107.112 289.279 107.093 289.597C99.761 300.089 87.857 297.183 78.9681 290.583C75.8541 294.304 72.8504 298.129 69.7136 301.818C72.5802 305.463 77.807 309.704 81.4958 312.635C84.0654 310.461 86.2429 309.096 89.2693 307.711C92.9734 306.017 96.8373 303.992 101.017 304.28C106.724 304.672 110.435 311.197 109.491 316.375C109.076 318.673 107.729 320.698 105.768 321.969C97.4465 327.48 88.2986 319.885 81.2217 316.244C80.072 317.173 77.5709 319.296 76.4365 319.974C76.6954 319.201 77.7346 317.605 78.1991 316.835L77.8412 316.607L78.3095 316.423C77.5062 316.736 76.8324 316.968 76.0101 317.232L79.1774 314.026C75.8045 310.844 71.8417 307.486 68.2709 304.491C65.3624 307.513 62.8309 311.452 60.1128 313.973L59.7321 313.832C59.3171 313.223 59.4466 313.312 58.7842 313.057C57.9924 312.759 57.2614 312.325 56.6219 311.774C55.6854 310.975 55.655 310.062 55.5293 308.882C56.8351 309.827 57.5698 310.752 58.6243 311.945C61.1673 308.651 63.7826 305.416 66.474 302.244C62.7433 298.776 59.458 294.275 55.7692 290.509C48.7189 296.635 47.5502 297.787 37.8313 299.669C33.7352 298.037 29.8218 295.976 26.1596 293.522C19.8593 299.602 11.9677 307.551 2.57393 299.501C-5.015 292.997 6.08611 280.707 11.3201 275.614ZM14.3207 299.837C18.4979 296.877 20.9747 295.262 24.4579 291.442C22.1358 289.044 13.8909 278.297 12.7694 277.573C9.20506 281.314 2.96526 288.032 2.9074 293.602C2.8739 296.843 7.44934 300.756 10.6707 300.53C11.6643 300.461 13.2753 300.093 14.3207 299.837ZM11.4469 242.137C3.04635 254.52 4.43775 262.28 13.1223 273.412C14.1749 271.096 15.781 267.978 16.7171 265.742C19.0103 260.267 18.7439 244.461 11.4469 242.137ZM93.9289 320.443C100.975 322.153 103.202 322.249 107.291 315.93C106.396 310.907 105.54 306.198 99.1481 306.754C95.7981 307.397 85.5501 311.235 84.3661 314.224C85.0628 316.045 90.9596 319.134 92.8135 319.972C93.1828 320.14 93.5558 320.296 93.9289 320.443ZM42.4148 296.083C46.1569 294.694 50.904 291.236 53.9267 288.522C49.4917 283.52 46.5224 282.436 39.849 282.723C34.6488 284.267 31.8927 287.146 28.1049 291C32.2049 293.63 36.0003 297.525 40.991 296.436C41.4669 296.333 41.9427 296.215 42.4148 296.083Z" fill="var(--fill-0, #AE1919)"/>
<path id="Vector_2" d="M63.1967 164.516C62.6599 163.602 60.254 159.529 59.9951 158.726C58.9787 155.602 59.2185 148.865 60.155 145.687C60.8288 143.399 62.8008 137.843 64.9669 136.431C65.8691 135.845 66.147 136.014 67.1596 136.05C68.4653 137.158 71.1568 145.657 71.4194 147.969C72.1846 154.635 68.1836 158.19 67.0987 164.569C74.305 176.312 72.8318 180.981 67.3652 192.984C70.917 195.908 73.1287 200.15 73.4942 204.736C73.8596 209.219 72.0514 215.503 69.4628 219.17C77.2287 229.28 77.7693 236.455 70.1289 247.458C73.4828 253.404 74.4421 255.45 76.2199 262.192C74.2403 268.243 72.7024 270.189 68.7394 275.068C71.0235 277.567 73.3381 280.035 75.6907 282.471L75.5956 283.256C76.9774 284.829 78.0091 285.192 78.5421 286.797L78.169 287.235L77.1335 287.301L77.1107 287.638C76.1704 287.07 69.0858 279.634 68.3245 278.456L68.1227 277.23C66.9883 276.067 66.0556 274.855 65.1268 273.526L64.9212 273.976C63.467 272.947 61.6739 270.219 60.9506 268.562C58.3011 262.485 60.5471 255.436 64.2474 250.345C64.7346 249.679 65.2371 249.024 65.7548 248.38C61.6853 243.597 58.6779 240.66 59.249 233.813C59.6868 228.538 61.948 224.08 65.4123 220.131C54.4943 210.699 56.4928 204.379 63.6611 193.241C54.4638 181.47 54.4257 177.578 63.1967 164.516ZM67.7839 245.749C73.1706 238.535 75.8658 227.703 67.4717 221.475C61.2247 227.152 58.8226 241.777 67.7839 245.749ZM67.7877 271.845C70.1137 268.733 72.5234 265.606 73.399 261.786C72.7252 258.542 70.6619 251.77 67.6583 249.883C65.3437 252.573 63.7753 254.544 63.0139 258.103C62.028 262.727 62.9683 268.674 66.3069 272.176L67.0568 272.463L67.7877 271.845ZM66.6457 218.011C69.7977 216.885 71.4766 204.649 69.6912 201.351C68.4082 198.98 67.4984 197.358 65.515 195.432C61.1828 201.215 60.4291 202.829 60.4405 210.015C62.2221 213.349 63.9961 215.311 66.6457 218.011ZM64.6433 190.404L65.1496 190.951C69.1772 186.532 70.7799 170.329 64.7308 167.212C61.6549 171.057 58.9178 176.551 59.4926 181.605C59.5649 182.26 59.6563 182.913 59.7553 183.564L64.6433 190.404ZM64.8184 161.816C67.407 155.706 71.9638 146.262 65.9604 140.277C60.924 146.939 60.2426 154.572 64.8184 161.816Z" fill="var(--fill-0, #AE1919)"/>
<path id="Vector_3" d="M122.411 271.372C110.492 262.941 110.865 249.614 118.304 238.317C119.233 236.904 120.333 236.135 121.939 235.718C123.394 236.024 126.081 239.77 126.968 241.093C132.5 249.34 131.963 261.61 126.317 269.722C130.227 273.766 137.856 281.277 137.091 286.272C135.412 297.218 118.894 297.465 111.794 291.439C110.412 290.268 108.364 289.257 107.093 289.597C107.112 289.279 107.31 288.531 107.39 288.182L106.05 287.379C102.886 285.687 100.884 283.311 96.4907 282.557C92.8475 281.932 88.2945 283.308 85.348 285.386L83.6159 286.592C80.9397 286.514 80.4981 289.922 78.0465 289.213C77.8676 286.439 81.3318 287.779 82.7479 284.678C87.1258 280.404 91.8501 279.604 97.7203 280.459C102.304 281.126 104.435 283.655 108.155 285.566C113.587 281.752 118.441 276.693 122.411 271.372ZM110.348 286.734C113.945 290.255 116.103 292.225 121.17 292.851C127.368 293.116 131.43 292.802 134.426 286.703C133.215 281.864 130.139 274.637 124.745 273.163C121.551 275.104 118.833 279.636 116.024 282.376C114.105 284.243 112.624 285.286 110.348 286.734ZM123.42 268.676L124.201 268.84C129.69 260.676 130.219 244.783 121.345 238.733C119.198 242.432 117.211 245.543 116.286 249.842C114.935 256.122 117.485 265.473 123.42 268.676Z" fill="var(--fill-0, #AE1919)"/>
<path id="Vector_4" d="M31.169 311.565C34.8655 305.37 39.7953 302.894 47.0511 303.996C49.8948 304.428 53.8844 306.533 55.529 308.882C55.6546 310.062 55.685 310.975 56.6215 311.774C57.2611 312.325 57.992 312.759 58.7838 313.057C59.4462 313.312 59.3168 313.223 59.7317 313.832L60.1124 313.973C62.4727 315.815 68.0345 322.122 69.8808 324.614C71.1713 322.506 73.7295 318.446 76.0098 317.232C76.8321 316.968 77.5059 316.736 78.3091 316.423L77.8408 316.607L78.1987 316.835C77.7343 317.605 76.695 319.201 76.4361 319.974C74.1635 322.72 73.3222 324.269 71.8832 327.508C76.7635 330.983 80.2163 334.891 82.135 340.611C86.7108 354.252 63.1503 360.067 61.1136 346.418C60.0249 339.119 64.5855 332.477 68.7007 326.961C65.5067 322.54 61.7227 320.126 58.4032 315.761C53.5799 320.391 47.8696 325.45 40.747 325.572C32.372 325.716 30.8378 318.441 31.169 311.565ZM47.2187 321.471C51.1854 319.376 53.9377 317.408 56.7624 313.817C52.1675 308.158 47.7744 305.021 40.3054 306.02C36.6471 307.41 35.8933 308.934 33.495 311.957C32.0255 322.241 38.4477 325.244 47.2187 321.471ZM73.6267 351.364C78.0502 350.69 80.7874 346.739 79.5311 342.346C77.9703 336.896 74.7916 332.923 70.467 329.432C65.0308 335.152 58.3613 352.376 71.8413 351.505C72.4352 351.465 73.0328 351.418 73.6267 351.364Z" fill="var(--fill-0, #AE1919)"/>
<path id="Vector_5" d="M61.5072 28.5158C60.9704 27.6018 58.5645 23.5292 58.3056 22.7264C57.2892 19.6021 57.5291 12.8647 58.4655 9.6874C59.1394 7.3985 61.1113 1.84298 63.2774 0.431168C64.1796 -0.154511 64.4575 0.0142004 65.4701 0.0498611C66.7759 1.15804 69.4673 9.65669 69.73 11.9688C70.4951 18.6349 66.4942 22.1899 65.4092 28.5693C72.6156 40.3119 71.1423 44.9813 65.6757 56.9845C69.2275 59.9085 71.4393 64.1501 71.8047 68.7357C72.1702 73.2186 70.3619 79.5032 67.7733 83.1705C75.5392 93.2795 76.0798 100.455 68.4395 111.458C71.7933 117.404 72.7526 119.45 74.5304 126.192C72.5509 132.243 71.0129 134.189 67.05 139.068C65.3526 138.55 65.3673 138.55 63.2317 137.976C63.2317 137.976 59.9845 134.219 59.2612 132.562C56.6116 126.485 58.8577 119.436 62.5579 114.345C63.0452 113.679 63.5477 113.024 64.0654 112.38C59.9959 107.597 56.9885 104.66 57.5595 97.8127C57.9973 92.5382 60.2586 88.0796 63.7228 84.1311C52.8048 74.6987 54.8034 68.3791 61.9716 57.2406C52.7743 45.4703 52.7363 41.5785 61.5072 28.5158ZM66.0945 109.749C71.4811 102.535 74.1764 91.7032 65.7823 85.4749C59.5353 91.1517 57.1332 105.777 66.0945 109.749ZM66.0983 135.845C68.4243 132.733 70.834 129.606 71.7096 125.786C71.0357 122.542 68.9724 115.77 65.9688 113.883C63.6543 116.573 62.0859 118.544 61.3245 122.103C60.3385 126.727 61.2788 132.674 64.6174 136.176L65.3673 136.463L66.0983 135.845ZM64.9562 82.0109C68.1083 80.8855 69.7871 68.649 68.0017 65.3512C66.7188 62.9798 65.8089 61.3578 63.8256 59.4316C59.4934 65.2153 58.7396 66.8286 58.7511 74.0148C60.5327 77.3495 62.3067 79.311 64.9562 82.0109ZM62.9538 54.4041L63.4601 54.9514C67.4878 50.5321 69.0904 34.3287 63.0414 31.2118C59.9655 35.0572 57.2283 40.5505 57.8032 45.6054C57.8755 46.2604 57.9669 46.9135 58.0659 47.5643L62.9538 54.4041ZM63.1289 25.8162C65.7176 19.7065 70.2744 10.2623 64.271 4.2773C59.2345 10.9386 58.5531 18.5721 63.1289 25.8162Z" fill="var(--fill-0, #AE1919)"/>
</g>
</svg>
