<svg preserveAspectRatio="none" width="100%" height="100%" overflow="visible" style="display: block;" viewBox="0 0 137.144 218.199" fill="none" xmlns="http://www.w3.org/2000/svg">
<g id="Group 43">
<path id="Vector" d="M11.3201 139.614C2.75208 128.671 0.668609 123.599 6.25286 110.041C10.3608 100.067 16.794 102.481 19.3682 111.531C22.3984 122.179 20.3503 129.531 15.2122 138.86C17.0848 142.129 18.8657 145.032 21.4467 147.81C23.293 149.797 24.6901 150.764 26.2357 153.026C31.7556 146.975 38.9544 142.181 47.4132 144.815C51.0182 145.938 53.0397 147.978 55.7083 150.468C57.684 148.189 64.7952 140.543 64.9208 137.976L65.1264 137.526C66.0553 138.855 66.9879 140.067 68.1224 141.23L68.3241 142.456L67.144 141.279C66.1885 141.619 58.1599 151.584 57.2615 152.953C60.3412 155.917 65.4119 160.814 68.0538 164.101C70.1971 160.386 72.2109 158 75.1802 154.923C76.1243 153.948 77.175 153.033 77.1103 151.638L77.1331 151.301L78.1686 151.235L78.5417 150.797C78.0087 149.192 76.9771 148.829 75.5952 147.256L75.6904 146.471C77.1598 147.65 78.8729 149.815 79.8094 150.037C81.1379 149.663 81.5338 149.374 82.7482 148.678C81.3321 151.779 77.8679 150.439 78.0468 153.213C80.4984 153.922 80.94 150.514 83.6162 150.592C82.7939 151.61 82.1924 152.012 82.0097 153.17C83.6048 155.614 89.5358 156.943 92.2234 157.788C98.0708 159.627 102.277 155.968 106.05 151.379L107.39 152.182C107.31 152.531 107.112 153.279 107.093 153.597C99.761 164.089 87.857 161.183 78.9681 154.583C75.8541 158.304 72.8504 162.129 69.7136 165.818C72.5802 169.463 77.807 173.704 81.4958 176.635C84.0654 174.461 86.2429 173.096 89.2693 171.711C92.9734 170.017 96.8373 167.992 101.017 168.28C106.724 168.672 110.435 175.197 109.491 180.375C109.076 182.673 107.729 184.698 105.768 185.969C97.4465 191.48 88.2986 183.885 81.2217 180.244C80.072 181.173 77.5709 183.296 76.4365 183.974C76.6954 183.201 77.7346 181.605 78.1991 180.835L77.8412 180.607L78.3095 180.423C77.5062 180.736 76.8324 180.968 76.0101 181.232L79.1774 178.026C75.8045 174.844 71.8417 171.486 68.2709 168.491C65.3624 171.513 62.8309 175.452 60.1128 177.973L59.7321 177.832C59.3171 177.223 59.4466 177.312 58.7842 177.057C57.9924 176.759 57.2614 176.325 56.6219 175.774C55.6854 174.975 55.655 174.062 55.5293 172.882C56.8351 173.827 57.5698 174.752 58.6243 175.945C61.1673 172.651 63.7826 169.416 66.474 166.244C62.7433 162.776 59.458 158.275 55.7692 154.509C48.7189 160.635 47.5502 161.787 37.8313 163.669C33.7352 162.037 29.8218 159.976 26.1596 157.522C19.8593 163.602 11.9677 171.551 2.57393 163.501C-5.015 156.997 6.08611 144.707 11.3201 139.614ZM14.3207 163.837C18.4979 160.877 20.9747 159.262 24.4579 155.442C22.1358 153.044 13.8909 142.297 12.7694 141.573C9.20506 145.314 2.96526 152.032 2.9074 157.602C2.8739 160.843 7.44934 164.756 10.6707 164.53C11.6643 164.461 13.2753 164.093 14.3207 163.837ZM11.4469 106.137C3.04635 118.52 4.43775 126.28 13.1223 137.412C14.1749 135.096 15.781 131.978 16.7171 129.742C19.0103 124.267 18.7439 108.461 11.4469 106.137ZM93.9289 184.443C100.975 186.153 103.202 186.249 107.291 179.93C106.396 174.907 105.54 170.198 99.1481 170.754C95.7981 171.397 85.5501 175.235 84.3661 178.224C85.0628 180.045 90.9596 183.134 92.8135 183.972C93.1828 184.14 93.5558 184.296 93.9289 184.443ZM42.4148 160.083C46.1569 158.694 50.904 155.236 53.9267 152.522C49.4917 147.52 46.5224 146.436 39.849 146.723C34.6488 148.267 31.8927 151.146 28.1049 155C32.2049 157.63 36.0003 161.525 40.991 160.436C41.4669 160.333 41.9427 160.215 42.4148 160.083Z" fill="var(--fill-0, #AE1919)"/>
<path id="Vector_2" d="M63.1967 28.5158C62.6599 27.6018 60.254 23.5292 59.9951 22.7264C58.9787 19.6021 59.2185 12.8647 60.155 9.6874C60.8288 7.3985 62.8008 1.84298 64.9669 0.431168C65.8691 -0.154511 66.147 0.0142004 67.1596 0.0498611C68.4653 1.15804 71.1568 9.65669 71.4194 11.9688C72.1846 18.6349 68.1836 22.1899 67.0987 28.5693C74.305 40.3119 72.8318 44.9813 67.3652 56.9845C70.917 59.9085 73.1287 64.1501 73.4942 68.7357C73.8596 73.2186 72.0514 79.5032 69.4628 83.1705C77.2287 93.2795 77.7693 100.455 70.1289 111.458C73.4828 117.404 74.4421 119.45 76.2199 126.192C74.2403 132.243 72.7024 134.189 68.7394 139.068C71.0235 141.567 73.3381 144.035 75.6907 146.471L75.5956 147.256C76.9774 148.829 78.0091 149.192 78.5421 150.797L78.169 151.235L77.1335 151.301L77.1107 151.638C76.1704 151.07 69.0858 143.634 68.3245 142.456L68.1227 141.23C66.9883 140.067 66.0556 138.855 65.1268 137.526L64.9212 137.976C63.467 136.947 61.6739 134.219 60.9506 132.562C58.3011 126.485 60.5471 119.436 64.2474 114.345C64.7346 113.679 65.2371 113.024 65.7548 112.38C61.6853 107.597 58.6779 104.66 59.249 97.8127C59.6868 92.5382 61.948 88.0796 65.4123 84.1311C54.4943 74.6987 56.4928 68.3791 63.6611 57.2406C54.4638 45.4703 54.4257 41.5785 63.1967 28.5158ZM67.7839 109.749C73.1706 102.535 75.8658 91.7032 67.4717 85.4749C61.2247 91.1517 58.8226 105.777 67.7839 109.749ZM67.7877 135.845C70.1137 132.733 72.5234 129.606 73.399 125.786C72.7252 122.542 70.6619 115.77 67.6583 113.883C65.3437 116.573 63.7753 118.544 63.0139 122.103C62.028 126.727 62.9683 132.674 66.3069 136.176L67.0568 136.463L67.7877 135.845ZM66.6457 82.0109C69.7977 80.8855 71.4766 68.649 69.6912 65.3512C68.4082 62.9798 67.4984 61.3578 65.515 59.4316C61.1828 65.2153 60.4291 66.8286 60.4405 74.0148C62.2221 77.3495 63.9961 79.311 66.6457 82.0109ZM64.6433 54.4041L65.1496 54.9514C69.1772 50.5321 70.7799 34.3287 64.7308 31.2118C61.6549 35.0572 58.9178 40.5505 59.4926 45.6054C59.5649 46.2604 59.6563 46.9135 59.7553 47.5643L64.6433 54.4041ZM64.8184 25.8162C67.407 19.7065 71.9638 10.2623 65.9604 4.2773C60.924 10.9386 60.2426 18.5721 64.8184 25.8162Z" fill="var(--fill-0, #AE1919)"/>
<path id="Vector_3" d="M122.412 135.372C110.492 126.941 110.865 113.614 118.304 102.317C119.233 100.904 120.333 100.135 121.94 99.7175C123.394 100.024 126.081 103.77 126.968 105.093C132.5 113.34 131.963 125.61 126.317 133.722C130.227 137.766 137.856 145.277 137.091 150.272C135.412 161.218 118.894 161.465 111.794 155.439C110.412 154.268 108.364 153.257 107.093 153.597C107.112 153.279 107.31 152.531 107.39 152.182L106.05 151.379C102.886 149.687 100.884 147.311 96.4909 146.557C92.8477 145.932 88.2947 147.308 85.3483 149.386L83.6161 150.592C80.9399 150.514 80.4983 153.922 78.0467 153.213C77.8678 150.439 81.332 151.779 82.7482 148.678C87.126 144.404 91.8503 143.604 97.7205 144.459C102.304 145.126 104.436 147.655 108.155 149.566C113.587 145.752 118.441 140.693 122.412 135.372ZM110.348 150.734C113.945 154.255 116.104 156.225 121.171 156.851C127.368 157.116 131.43 156.802 134.426 150.703C133.215 145.864 130.14 138.637 124.745 137.163C121.551 139.104 118.833 143.636 116.024 146.376C114.105 148.243 112.624 149.286 110.348 150.734ZM123.42 132.676L124.201 132.84C129.69 124.676 130.219 108.783 121.346 102.733C119.199 106.432 117.212 109.543 116.286 113.842C114.935 120.122 117.486 129.473 123.42 132.676Z" fill="var(--fill-0, #AE1919)"/>
<path id="Vector_4" d="M31.1691 175.565C34.8655 169.37 39.7953 166.894 47.0512 167.996C49.8949 168.428 53.8845 170.533 55.529 172.882C55.6546 174.062 55.6851 174.975 56.6216 175.774C57.2611 176.325 57.9921 176.759 58.7839 177.057C59.4463 177.312 59.3168 177.223 59.7318 177.832L60.1125 177.973C62.4727 179.815 68.0345 186.122 69.8808 188.614C71.1713 186.506 73.7295 182.446 76.0098 181.232C76.8321 180.968 77.5059 180.736 78.3092 180.423L77.8409 180.607L78.1988 180.835C77.7343 181.605 76.6951 183.201 76.4362 183.974C74.1635 186.72 73.3222 188.269 71.8832 191.508C76.7636 194.983 80.2164 198.891 82.135 204.611C86.7108 218.252 63.1503 224.067 61.1137 210.418C60.0249 203.119 64.5855 196.477 68.7007 190.961C65.5068 186.54 61.7228 184.126 58.4032 179.761C53.5799 184.391 47.8697 189.45 40.7471 189.572C32.372 189.716 30.8379 182.441 31.1691 175.565ZM47.2187 185.471C51.1854 183.376 53.9377 181.408 56.7624 177.817C52.1676 172.158 47.7745 169.021 40.3055 170.02C36.6471 171.41 35.8933 172.934 33.495 175.957C32.0256 186.241 38.4477 189.244 47.2187 185.471ZM73.6267 215.364C78.0503 214.69 80.7874 210.739 79.5312 206.346C77.9703 200.896 74.7916 196.923 70.467 193.432C65.0309 199.152 58.3613 216.376 71.8414 215.505C72.4352 215.465 73.0329 215.418 73.6267 215.364Z" fill="var(--fill-0, #AE1919)"/>
</g>
</svg>
