<svg preserveAspectRatio="none" width="100%" height="100%" overflow="visible" style="display: block;" viewBox="0 0 62.2188 61.5714" fill="none" xmlns="http://www.w3.org/2000/svg">
<path id="Vector" d="M7.89184 0.019501C8.41638 0.00130743 8.95715 0.0332671 9.48415 0.00966456C19.9991 -0.459436 24.8443 16.2669 25.2927 24.3567C25.5119 28.3086 25.2578 33.3753 25.1555 37.3199C30.5848 37.399 36.5637 36.1358 41.7904 37.1979C48.6606 38.5934 64.125 43.8912 62.0244 53.3504C61.2363 56.8977 57.4146 58.7278 54.5436 60.4316C42.9206 61.1771 35.4537 54.9736 28.7728 46.0184C28.0211 44.7453 26.067 41.319 24.8542 40.9463C23.7073 44.5093 24.6025 45.8487 24.0927 48.5846C23.3744 52.4417 20.3939 57.2419 17.0062 59.3454C12.1845 62.34 10.312 61.7819 5.13541 60.7301C1.53048 57.5821 -1.7313 52.0709 1.03545 47.5206C6.14125 39.123 14.0811 37.9537 22.6793 37.6916C16.0766 33.5085 11.4206 30.6448 6.62991 24.0956C0.779325 16.0968 -1.87979 6.48856 7.89184 0.019501ZM27.2301 39.5257C32.5291 48.0398 41.4031 59.8199 52.9179 58.3128C73.2635 50.7723 46.5846 38.3672 35.1508 39.1048L27.2301 39.5257ZM20.1087 33.3192L22.0328 34.4133C25.3561 32.2133 21.4002 10.9499 17.2815 7.19958C13.6667 3.90851 15.0201 1.74494 8.23105 2.07931C-2.56606 13.8717 9.45564 27.0257 20.1087 33.3192ZM5.6993 58.2789C16.1975 62.0253 21.4105 54.1612 21.8529 44.6558C21.9291 43.011 22.2418 41.8835 21.8583 40.1738L21.1824 40.1172C14.3801 40.282 10.1124 40.5962 4.92058 45.7047C1.03051 49.5317 2.29101 54.7562 5.6993 58.2789Z" fill="var(--fill-0, #EDEAEC)" fill-opacity="0.7"/>
</svg>
