<svg preserveAspectRatio="none" width="100%" height="100%" overflow="visible" style="display: block;" viewBox="0 0 56.0001 89.0966" fill="none" xmlns="http://www.w3.org/2000/svg">
<g id="Group 43">
<path id="Vector" d="M4.62245 57.008C1.12388 52.5397 0.273141 50.4687 2.55334 44.9326C4.23073 40.8599 6.85757 41.8457 7.90868 45.541C9.14601 49.8889 8.30972 52.891 6.2117 56.7003C6.97633 58.0349 7.70349 59.2207 8.7574 60.3549C9.5113 61.166 10.0818 61.5612 10.7129 62.4847C12.9668 60.0138 15.9063 58.0565 19.3602 59.1321C20.8323 59.5905 21.6577 60.4235 22.7473 61.4401C23.5541 60.5096 26.4578 57.3875 26.5091 56.3392L26.593 56.1557C26.9723 56.6983 27.3531 57.1933 27.8163 57.6682L27.8987 58.1687L27.4168 57.6881C27.0267 57.827 23.7484 61.8957 23.3815 62.4547C24.6391 63.6652 26.7096 65.6649 27.7884 67.0069C28.6635 65.49 29.4858 64.5158 30.6982 63.2594C31.0837 62.8611 31.5128 62.4875 31.4864 61.9178L31.4957 61.7804L31.9185 61.7534L32.0708 61.5744C31.8532 60.919 31.432 60.7709 30.8677 60.1287L30.9066 59.8081C31.5066 60.2894 32.2061 61.1734 32.5884 61.2643C33.1309 61.1113 33.2926 60.9933 33.7885 60.7093C33.2102 61.9756 31.7957 61.4285 31.8687 62.5609C32.8698 62.8507 33.0501 61.4589 34.1429 61.4906C33.8071 61.9065 33.5615 62.0704 33.4869 62.5436C34.1382 63.5413 36.56 64.084 37.6575 64.4293C40.0451 65.1799 41.7627 63.686 43.3032 61.8121L43.8503 62.1399C43.8177 62.2824 43.7369 62.5879 43.7291 62.718C40.7352 67.0018 35.8745 65.8153 32.2449 63.1205C30.9734 64.6398 29.7469 66.2015 28.4661 67.7081C29.6366 69.1964 31.7708 70.928 33.2771 72.1248C34.3263 71.2371 35.2154 70.6797 36.4512 70.114C37.9637 69.4223 39.5414 68.5958 41.2482 68.7132C43.5783 68.8735 45.0939 71.5377 44.7084 73.6518C44.5389 74.5903 43.9887 75.417 43.1881 75.9363C39.7902 78.1864 36.0548 75.0851 33.1651 73.5985C32.6957 73.9778 31.6744 74.8446 31.2112 75.1216C31.3169 74.806 31.7413 74.154 31.9309 73.8397L31.7848 73.7466L31.976 73.6715C31.648 73.7994 31.3729 73.8941 31.0371 74.0017L32.3304 72.6928C30.9532 71.3935 29.335 70.0225 27.877 68.7993C26.6894 70.0334 25.6557 71.6418 24.5458 72.671L24.3904 72.6137C24.2209 72.3649 24.2738 72.4014 24.0033 72.2971C23.68 72.1756 23.3815 71.9981 23.1204 71.7731C22.738 71.4471 22.7256 71.0741 22.6743 70.5924C23.2074 70.9781 23.5074 71.3559 23.938 71.8429C24.9764 70.498 26.0443 69.1773 27.1433 67.8818C25.6199 66.4657 24.2784 64.6279 22.7722 63.0903C19.8934 65.5915 19.4162 66.0621 15.4477 66.8305C13.7751 66.1642 12.1772 65.3227 10.6818 64.3203C8.1092 66.8032 4.88686 70.0488 1.05114 66.7619C-2.04763 64.1062 2.48525 59.0876 4.62245 57.008ZM5.84766 66.8992C7.55334 65.6905 8.56466 65.0308 9.98696 63.4712C9.03876 62.492 5.67216 58.1036 5.21422 57.8079C3.7588 59.3355 1.21093 62.0787 1.1873 64.353C1.17362 65.6767 3.0419 67.2742 4.35726 67.1822C4.76297 67.1539 5.42081 67.0037 5.84766 66.8992ZM4.67421 43.3387C1.24404 48.395 1.81218 51.5634 5.35832 56.109C5.78812 55.1634 6.44393 53.8902 6.82617 52.9771C7.76256 50.7414 7.65375 44.2876 4.67421 43.3387ZM38.3538 75.313C41.2311 76.0113 42.1405 76.0506 43.8099 73.4701C43.4446 71.4191 43.0949 69.4963 40.485 69.7235C39.1171 69.986 34.9325 71.5531 34.4491 72.7736C34.7336 73.5172 37.1414 74.7786 37.8984 75.1208C38.0492 75.1892 38.2015 75.2532 38.3538 75.313ZM17.3192 65.3662C18.8472 64.799 20.7856 63.3871 22.0198 62.2787C20.2089 60.2362 18.9965 59.7939 16.2715 59.9108C14.1482 60.5414 13.0228 61.717 11.4761 63.2906C13.1502 64.3645 14.7 65.9552 16.7379 65.5102C16.9322 65.4683 17.1265 65.4201 17.3192 65.3662Z" fill="var(--fill-0, #AE1919)"/>
<path id="Vector_2" d="M25.8054 11.6438C25.5862 11.2705 24.6038 9.60763 24.4981 9.27982C24.0831 8.00408 24.181 5.25302 24.5634 3.95563C24.8385 3.02101 25.6437 0.752538 26.5282 0.176057C26.8966 -0.0630912 27.0101 0.00579843 27.4236 0.0203596C27.9567 0.47286 29.0557 3.94309 29.163 4.88717C29.4754 7.60912 27.8417 9.06072 27.3987 11.6656C30.3412 16.4604 29.7397 18.3671 27.5075 23.2683C28.9578 24.4623 29.8609 26.1942 30.0101 28.0667C30.1594 29.8971 29.421 32.4633 28.364 33.9608C31.5351 38.0886 31.7558 41.0184 28.636 45.5112C30.0055 47.9394 30.3972 48.7748 31.1231 51.5278C30.3148 53.9985 29.6868 54.7931 28.0687 56.7853C29.0013 57.8057 29.9464 58.8135 30.9071 59.8081L30.8682 60.1286C31.4325 60.7709 31.8537 60.919 32.0713 61.5744L31.919 61.7534L31.4962 61.7804L31.4869 61.9178C31.1029 61.6859 28.2101 58.6495 27.8992 58.1687L27.8168 57.6682C27.3536 57.1933 26.9728 56.6983 26.5935 56.1556L26.5096 56.3392C25.9158 55.9191 25.1836 54.8052 24.8883 54.1287C23.8064 51.6471 24.7235 48.7691 26.2344 46.6901C26.4334 46.4181 26.6386 46.1507 26.85 45.8879C25.1883 43.9346 23.9603 42.7354 24.1934 39.9396C24.3722 37.7858 25.2955 35.9653 26.7101 34.353C22.252 30.5015 23.068 27.921 25.995 23.3729C22.2395 18.5668 22.224 16.9776 25.8054 11.6438ZM27.6785 44.8136C29.878 41.8679 30.9785 37.4449 27.551 34.9017C25.0002 37.2197 24.0194 43.1915 27.6785 44.8136ZM27.68 55.4694C28.6298 54.1987 29.6138 52.9216 29.9713 51.3616C29.6961 50.0373 28.8536 47.2722 27.6272 46.5014C26.6821 47.6001 26.0417 48.4046 25.7308 49.858C25.3282 51.7461 25.7121 54.1744 27.0754 55.6044L27.3816 55.7214L27.68 55.4694ZM27.2137 33.4873C28.5008 33.0277 29.1863 28.0312 28.4573 26.6847C27.9334 25.7164 27.5619 25.054 26.752 24.2675C24.9831 26.6292 24.6753 27.2879 24.68 30.2222C25.4075 31.5839 26.1318 32.3848 27.2137 33.4873ZM26.3961 22.2147L26.6028 22.4381C28.2474 20.6336 28.9018 14.0174 26.4318 12.7446C25.1758 14.3148 24.0582 16.5579 24.2929 18.6219C24.3225 18.8894 24.3598 19.156 24.4002 19.4218L26.3961 22.2147ZM26.4676 10.5414C27.5246 8.04669 29.3853 4.19038 26.9339 1.74654C24.8774 4.46655 24.5992 7.5835 26.4676 10.5414Z" fill="var(--fill-0, #AE1919)"/>
<path id="Vector_3" d="M49.9844 55.2759C45.1174 51.8335 45.2698 46.3917 48.3071 41.7786C48.6864 41.2018 49.1357 40.888 49.7916 40.7174C50.3854 40.8425 51.4829 42.3719 51.845 42.9124C54.1036 46.2797 53.8845 51.29 51.5792 54.6024C53.1756 56.2534 56.2907 59.3206 55.9783 61.3599C55.2928 65.8298 48.5481 65.9306 45.6491 63.47C45.0848 62.9916 44.2485 62.5789 43.7293 62.718C43.7371 62.5879 43.8179 62.2824 43.8506 62.1399L43.3034 61.8121C42.0117 61.1212 41.1941 60.1511 39.4002 59.8432C37.9126 59.5879 36.0535 60.1498 34.8504 60.9981L34.1431 61.4906C33.0504 61.4589 32.87 62.8507 31.869 62.5609C31.7959 61.4285 33.2105 61.9756 33.7887 60.7093C35.5763 58.9641 37.5054 58.6376 39.9023 58.9865C41.7739 59.2589 42.6443 60.2917 44.163 61.0718C46.3812 59.5147 48.3631 57.4489 49.9844 55.2759ZM45.0584 61.5486C46.5273 62.9864 47.4087 63.7907 49.4776 64.0467C52.0083 64.1545 53.6668 64.0266 54.8902 61.5363C54.3959 59.5601 53.1399 56.6094 50.9373 56.0076C49.6331 56.8 48.5232 58.6505 47.376 59.7692C46.5926 60.5316 45.9879 60.9576 45.0584 61.5486ZM50.3963 54.1751L50.715 54.2422C52.9565 50.9087 53.1725 44.4189 49.5491 41.9488C48.6724 43.4591 47.861 44.7292 47.4833 46.4847C46.9315 49.0493 47.9729 52.8672 50.3963 54.1751Z" fill="var(--fill-0, #AE1919)"/>
<path id="Vector_4" d="M12.727 71.6878C14.2364 69.1585 16.2493 68.1474 19.2121 68.5973C20.3733 68.7737 22.0023 69.6334 22.6738 70.5924C22.7251 71.0741 22.7376 71.4471 23.12 71.7731C23.3811 71.9981 23.6796 72.1756 24.0029 72.2971C24.2734 72.4014 24.2205 72.3649 24.3899 72.6137L24.5454 72.671C25.5091 73.4235 27.7802 75.9987 28.5341 77.0161C29.061 76.1553 30.1056 74.4978 31.0367 74.0017C31.3725 73.894 31.6476 73.7994 31.9756 73.6715L31.7844 73.7466L31.9305 73.8397C31.7409 74.154 31.3165 74.8059 31.2108 75.1216C30.2828 76.2428 29.9393 76.8754 29.3517 78.1981C31.3445 79.6167 32.7543 81.2127 33.5378 83.5483C35.4062 89.1182 25.7858 91.4926 24.9542 85.9192C24.5096 82.9391 26.3718 80.2267 28.0522 77.9746C26.748 76.1695 25.2029 75.1837 23.8474 73.4014C21.878 75.2917 19.5463 77.3577 16.638 77.4075C13.2182 77.4663 12.5918 74.4956 12.727 71.6878ZM19.2805 75.7328C20.9002 74.8773 22.0241 74.0737 23.1775 72.6075C21.3013 70.297 19.5074 69.0158 16.4576 69.4239C14.9638 69.9913 14.6561 70.6135 13.6768 71.848C13.0767 76.0472 15.6991 77.2734 19.2805 75.7328ZM30.0636 87.939C31.8699 87.6636 32.9875 86.0504 32.4746 84.2566C31.8372 82.0314 30.5393 80.4088 28.7734 78.9833C26.5537 81.319 23.8303 88.3522 29.3346 87.9963C29.5771 87.98 29.8211 87.9609 30.0636 87.939Z" fill="var(--fill-0, #AE1919)"/>
</g>
</svg>
