<svg preserveAspectRatio="none" width="100%" height="100%" overflow="visible" style="display: block;" viewBox="0 0 46.5296 46.1003" fill="none" xmlns="http://www.w3.org/2000/svg">
<path id="Vector" d="M21.0629 5.11551C19.7311 3.27057 17.516 0.0258554 14.7019 1.60814C13.9539 2.02871 13.3085 3.87096 13.4264 4.76801C14.8026 5.29162 15.8028 3.91776 17.3517 4.32891C17.5392 5.37782 17.5281 4.98318 17.1029 6.07114C15.8671 7.07594 13.4917 6.79678 12.4814 5.66032C12.0006 5.1219 11.762 4.40938 11.8215 3.69012C12.0006 1.23841 14.5871 -0.362385 16.9087 0.0706473C19.6981 0.590555 20.8427 2.5604 22.3169 4.69862C22.4853 13.0087 18.4842 22.0209 16.1259 30.1674C21.4043 28.2881 26.8479 26.7688 32.2279 25.1431C35.8553 24.0467 40.5738 22.9729 43.8871 25.537C45.2845 26.6186 46.2968 28.1524 46.5143 29.9182C46.7621 31.9292 43.9436 34.3243 42.1065 34.2192C41.3652 34.1805 40.6727 33.8374 40.193 33.271C38.1071 30.8435 40.2556 28.1268 42.3796 29.1525C41.3571 30.2893 40.5101 30.755 41.2232 32.2538C42.2944 32.9185 41.8497 32.8437 42.9983 32.7895C45.8858 31.2092 45.1875 27.4056 42.5937 26.2213C37.279 23.7948 28.6342 27.6271 23.172 29.2885C21.2147 29.9337 19.653 30.3944 17.6537 30.889C18.7835 30.9503 21.1794 31.1436 22.1964 31.0591C22.3964 31.0665 22.596 31.0776 22.7956 31.0921C27.0041 31.4059 32.848 33.2852 35.7624 36.5609C37.5015 38.2229 37.7156 41.9613 35.623 43.4911C26.8344 49.9148 18.2431 38.6354 14.5356 32.5632C14.4121 37.2916 14.1252 42.5607 9.39734 45.2612C7.83663 46.1704 5.9561 46.3506 4.25165 45.7535C2.5519 45.1659 1.18409 43.8803 0.492276 42.2203C-1.8673 36.4221 4.75729 32.1804 9.70907 31.8197C10.9011 31.7328 12.0845 31.6578 13.2782 31.5978C7.65719 27.8918 1.69142 23.6174 0.785837 16.2622C0.0876264 10.5927 6.13048 6.41158 10.3366 11.1763C14.9332 16.3828 15.2776 22.4927 15.1153 29.0431C17.1258 22.4304 20.7757 11.6538 21.0629 5.11551ZM35.0332 42.3445C36.7942 39.6944 35.7873 37.6152 33.2156 36.0251C27.505 32.4949 22.5546 32.4326 16.1105 32.6615C20.2809 39.2402 26.4564 47.3183 35.0332 42.3445ZM12.2895 29.24L13.1887 29.7179C14.0296 28.3201 13.4163 21.139 12.8965 19.4968C11.4354 14.8806 10.1009 10.2267 4.52769 10.2887C2.79799 12.6929 1.70624 14.0927 2.27686 17.3C3.00807 21.4101 6.76709 25.5738 10.0713 27.8645C10.7853 28.3632 11.5256 28.8222 12.2895 29.24ZM3.00705 43.9096C10.8705 46.5566 13.2035 39.6732 13.1018 33.3027L12.8147 33.1245C10.0531 33.2145 8.55133 33.066 5.94566 34.2566C1.35242 36.3555 0.0196206 39.6547 3.00705 43.9096Z" fill="var(--fill-0, #EDEAEC)" fill-opacity="0.7"/>
</svg>
