<svg preserveAspectRatio="none" width="100%" height="100%" overflow="visible" style="display: block;" viewBox="0 0 72.6923 32.8846" fill="none" xmlns="http://www.w3.org/2000/svg">
<path id="Vector" d="M26.1238 0.0301504C27.9987 0.0627441 30.7511 0.347952 32.1786 1.60553C37.1958 6.02197 30.4023 13.1247 27.8138 16.0826C29.6393 18.6711 33.9407 22.5768 36.3496 24.9535C39.1431 21.9195 42.3977 19.5538 44.828 16.164C40.6799 11.859 38.717 9.33022 38.9608 3.32755C43.2584 -1.76521 49.1359 -0.752082 52.6575 4.596C52.9899 10.4303 50.7953 12.557 46.3289 15.8082C49.4825 19.0024 52.9726 22.2373 56.2366 25.3528C60.082 22.7724 64.8875 20.4365 69.4416 22.642C72.0566 23.9105 73.6337 26.7597 72.0728 29.4976C70.9353 31.494 69.0572 32.336 66.9433 32.8547C61.988 32.4962 59.89 29.4188 56.2191 26.7679C55.5357 27.5039 54.767 28.3242 54.0197 28.9896C48.5988 33.8162 40.755 31.3364 36.3453 26.3604C36.1317 26.594 35.9109 26.8249 35.6833 27.0449C33.3361 29.3618 28.6994 31.8199 25.3211 31.6134C20.9814 31.35 19.0776 29.628 16.3138 26.7298C12.003 29.9539 11.9233 31.7438 5.875 32.8846C3.49439 32.2871 1.012 31.1626 0.205235 28.5931C-0.166558 27.4116 -0.029129 26.1241 0.584316 25.0486C3.93207 19.0676 12.2128 22.6203 16.4297 25.3229C19.7385 22.259 23.1611 18.7607 26.4959 15.8408C21.4849 12.6385 19.7375 10.1912 20.0928 4.18042C21.9563 2.01837 23.3347 0.768941 26.1238 0.0301504ZM37.0838 25.6461C39.6979 28.3568 43.4215 30.5161 47.2224 30.671C51.459 29.9349 52.6084 29.2314 55.4682 25.9965C52.1869 22.9517 48.9377 19.8743 45.7217 16.7589C43.3176 19.9694 39.834 22.6882 37.0838 25.6461ZM17.1346 25.9286C20.2961 29.2776 21.5662 30.5161 26.3587 30.565C29.7335 29.9783 33.1679 28.297 35.5056 25.7384C33.3267 23.37 28.4715 18.9698 26.9814 16.7534C23.852 19.695 20.3323 23.1853 17.1346 25.9286ZM56.9945 26.0562C59.8174 28.1205 60.9409 29.7013 64.1804 31.2631C73.4882 33.3925 73.6259 22.0852 65.053 22.8159C61.7744 23.3183 59.8336 24.3125 56.9945 26.0562ZM26.0158 1.17095C17.1581 3.24608 21.9995 11.7747 27.1655 15.007L27.3426 14.9146C31.023 10.5253 32.6174 9.47146 32.7213 3.83275C30.483 1.52946 29.2089 1.08675 26.0158 1.17095ZM15.6634 25.9992C12.5111 24.2147 9.57268 22.6529 5.80048 22.7941C-0.599922 24.9263 -0.251349 30.1522 5.99245 31.8525C7.77717 31.3608 8.48593 31.1761 10.1232 30.3586C11.8318 29.4405 14.1222 27.3192 15.6634 25.9992ZM43.2476 1.35022C41.754 2.1705 40.478 2.73273 40.0497 4.56341C39.1563 8.38773 43.219 12.6955 45.6361 15.2867L47.1627 13.6679C48.5529 12.2827 49.975 11.0849 50.7891 9.27319C53.2925 3.70238 49.3591 0.888451 44.2426 1.25241C43.91 1.27414 43.5781 1.30677 43.2476 1.35022Z" fill="var(--fill-0, #AE1919)"/>
</svg>
