<svg preserveAspectRatio="none" width="100%" height="100%" overflow="visible" style="display: block;" viewBox="0 0 67.9465 67.3196" fill="none" xmlns="http://www.w3.org/2000/svg">
<path id="Vector" d="M30.7579 7.4701C28.8131 4.77597 25.5783 0.0377562 21.469 2.34835C20.3767 2.9625 19.4343 5.65272 19.6063 6.96266C21.616 7.72728 23.0766 5.72106 25.3384 6.32145C25.6122 7.85315 25.596 7.27686 24.9751 8.86561C23.1704 10.3329 19.7017 9.92525 18.2264 8.26569C17.5244 7.47943 17.1758 6.43895 17.2628 5.38864C17.5244 1.80843 21.3014 -0.529186 24.6915 0.103165C28.7649 0.86238 30.4364 3.73892 32.5891 6.86133C32.8349 18.9965 26.9922 32.1569 23.5485 44.053C31.2564 41.3088 39.2056 39.0901 47.0619 36.7161C52.359 35.115 59.2493 33.5469 64.0877 37.2914C66.1283 38.8708 67.6066 41.1106 67.9242 43.6892C68.286 46.6257 64.1703 50.1233 61.4876 49.9699C60.4051 49.9133 59.3938 49.4123 58.6933 48.5852C55.6473 45.0404 58.7847 41.0732 61.8863 42.571C60.3933 44.231 59.1564 44.9111 60.1976 47.0997C61.7619 48.0704 61.1125 47.9612 62.7898 47.8821C67.0063 45.5744 65.9867 40.02 62.1989 38.2906C54.438 34.7473 41.8141 40.3435 33.8378 42.7696C30.9796 43.7118 28.699 44.3845 25.7794 45.1068C27.4292 45.1963 30.928 45.4785 32.4131 45.3551C32.7051 45.3659 32.9966 45.3821 33.2882 45.4033C39.4337 45.8616 47.9675 48.6059 52.2233 53.3893C54.7629 55.8164 55.0756 61.2755 52.0198 63.5094C39.1859 72.8899 26.6402 56.4188 21.2262 47.5516C21.0457 54.4563 20.6269 62.1508 13.7228 66.0944C11.4437 67.422 8.69762 67.6851 6.20862 66.8132C3.72651 65.9552 1.72911 64.0778 0.718864 61.6536C-2.72679 53.1867 6.94701 46.9925 14.178 46.4659C15.9188 46.339 17.6468 46.2294 19.39 46.1419C11.1817 40.73 2.46996 34.4881 1.14755 23.7475C0.12796 15.4684 8.95226 9.36274 15.0944 16.3206C21.8067 23.9235 22.3096 32.8458 22.0727 42.4112C25.0086 32.7548 30.3385 17.0178 30.7579 7.4701ZM51.1585 61.8351C53.7301 57.9652 52.2597 54.9289 48.5043 52.607C40.1652 47.4518 32.9362 47.3608 23.5259 47.6952C29.6159 57.3019 38.6339 69.0983 51.1585 61.8351ZM17.9462 42.6988L19.2592 43.3966C20.4873 41.3555 19.5916 30.869 18.8325 28.4709C16.699 21.73 14.7502 14.9339 6.61173 15.0244C4.08586 18.5352 2.4916 20.5793 3.32487 25.263C4.39264 31.2649 9.88188 37.345 14.707 40.6902C15.7497 41.4184 16.8307 42.0886 17.9462 42.6988ZM4.39115 64.1206C15.874 67.986 19.2809 57.9343 19.1324 48.6314L18.7131 48.3713C14.6804 48.5026 12.4874 48.2858 8.68237 50.0245C1.97492 53.0894 0.0286517 57.9072 4.39115 64.1206Z" fill="var(--fill-0, #EDEAEC)" fill-opacity="0.7"/>
</svg>
