<svg preserveAspectRatio="none" width="100%" height="100%" overflow="visible" style="display: block;" viewBox="0 0 58.015 71.1758" fill="none" xmlns="http://www.w3.org/2000/svg">
<g id="Group 40">
<path id="Vector" d="M28.7656 0.00671437C29.7115 -0.0490044 29.3916 0.245792 29.8261 0.75215C30.5867 1.63859 31.2801 2.44828 31.9211 3.43397C32.3692 4.02244 32.9377 4.56615 33.392 5.14477C34.6505 6.74676 35.7244 8.19599 36.5567 10.0709C37.0943 11.2816 37.5032 11.9681 37.7044 13.3714C38.8644 13.3738 39.6902 13.4431 40.8255 13.7032C42.2225 14.0203 43.6324 14.4643 45.0633 14.5831C45.7497 14.6401 46.3746 14.5351 46.9897 14.226C47.1739 14.1334 47.568 13.8986 47.7663 13.9121C47.7556 14.0735 47.4188 14.3792 47.2984 14.5054C45.8783 15.9929 45.1198 18.1396 45.2678 20.1928C45.3444 20.8842 45.283 21.8301 45.4116 22.4962C45.8156 24.5855 45.6524 26.3651 44.4371 28.1831C43.9659 28.8886 42.7659 29.7798 41.8721 29.8853C38.8982 30.2362 37.9402 26.3001 39.4684 24.3032C40.7702 22.594 43.0948 23.2546 43.4024 25.4108C43.5875 26.7097 42.3136 28.1663 40.9801 27.2933C40.5328 27.0007 40.4301 25.8561 40.8927 25.5109C41.6034 24.9802 41.7612 25.694 42.0346 26.0066L42.0898 25.96C42.2341 25.4912 42.0906 24.9653 41.6516 24.7103C41.4661 24.6043 41.2455 24.5791 41.0411 24.6406C39.7339 25.0281 39.6584 28.0669 41.0052 28.5351C41.4084 28.6751 41.7621 28.671 42.1368 28.4927C42.9291 28.116 43.5038 27.4655 43.8138 26.6506C44.3085 25.4712 44.501 24.8575 44.3963 23.6049C44.2916 22.3598 44.0265 21.0688 44.123 19.8226C44.1939 18.9054 44.374 17.914 44.7112 17.058C44.8745 16.645 45.0827 16.2654 45.2405 15.8547C42.812 15.7759 40.4788 14.5823 37.9682 14.6313C38.0482 15.2747 38.2176 16.2461 38.2477 16.8651C38.3945 19.8629 37.53 22.782 36.4013 25.5255C36.2583 25.8733 35.8741 26.5282 35.6803 26.9341C36.7303 28.8238 36.5514 31.4017 37.6187 33.3144C37.9769 33.9566 38.3632 34.8092 38.7985 35.3825C39.1476 35.0613 39.4779 34.6205 39.8212 34.3108C40.8584 33.3761 42.4897 31.8829 43.8084 31.4596C46.8404 30.4864 50.896 31.0658 53.3551 33.1486C54.6417 34.2387 55.6211 36.9899 55.939 38.6295C55.9666 38.9402 55.9043 39.317 55.9295 39.6212C56.3393 44.6185 54.1758 49.4225 49.4004 51.4986C48.9453 51.6965 48.4993 51.9714 47.991 52.1004C46.8516 52.3898 45.6755 52.4372 44.5063 52.52C43.9754 53.9754 42.5787 55.7004 41.4681 56.7626C41.119 57.1064 40.8131 57.5367 40.4751 57.885C36.4776 62.0014 30.2338 64.6415 29.3596 70.9627C29.3423 71.088 29.3022 71.116 29.2046 71.1758C29.0398 71.1758 28.8633 71.1671 28.6975 71.1622C28.4949 69.9541 28.0699 68.4496 27.4546 67.3689C25.6064 64.1497 22.3593 62.095 19.5654 59.7765C18.8934 59.2188 18.1957 58.4583 17.5285 57.8689C17.2151 57.5919 16.9019 57.1055 16.5728 56.7865C15.4578 55.7045 14.0203 54.0018 13.5243 52.5225C12.6476 52.4248 11.1507 52.4021 10.3108 52.1738C8.58267 51.6557 6.60112 50.5539 5.33299 49.2897C4.1556 48.1163 3.17542 46.4968 2.67207 44.9251C2.5404 44.5142 2.33956 44.0072 2.28568 43.586C2.19157 42.6445 2.06678 41.68 2.03702 40.7337C1.9725 38.6843 2.24058 37.1421 3.19438 35.2931C3.8916 33.9414 4.14875 33.4316 5.4222 32.6048C7.05158 31.554 8.94969 30.9959 10.8886 30.9976C15.055 31.0385 16.4546 32.5867 19.2257 35.3983C19.6422 34.8203 19.9672 34.0394 20.3411 33.4139C21.4632 31.5368 21.2699 28.75 22.3504 26.9202C22.1287 26.4855 21.8221 25.9796 21.6305 25.5493C21.4131 25.0597 21.2563 24.5224 21.0562 24.0301C20.6429 23.013 20.4035 22.1305 20.1829 21.0673C19.8976 19.6928 19.6564 18.3394 19.7573 16.9212C19.8105 16.1724 19.9467 15.3745 20.0487 14.6296C17.6364 14.5877 15.3046 15.6957 12.7796 15.8697C12.957 16.2987 13.1645 16.694 13.3276 17.1336C13.7041 18.1487 13.8999 19.4041 13.9133 20.4824C13.9335 22.1123 13.2685 23.9374 13.7761 25.5191C14.1706 26.7485 14.5813 27.8036 15.7821 28.4529C16.1145 28.6339 16.5774 28.6892 16.9348 28.5606C18.0358 28.1642 18.2069 26.4869 17.8012 25.535C17.566 24.9833 17.0201 24.397 16.3723 24.6806C15.9684 24.8575 15.7758 25.6093 15.9707 25.9943C16.153 25.9608 16.2384 25.0659 16.9221 25.4C17.1488 25.5106 17.3211 25.7084 17.3994 25.9482C17.5082 26.2781 17.4722 26.6387 17.3002 26.9406C16.8728 27.6918 16.1001 27.7563 15.419 27.2855C13.8711 26.2154 14.7183 23.5137 16.4922 23.3393C18.177 23.1736 19.1124 24.7886 19.2459 26.2386C19.5237 29.2552 16.7721 31.121 14.3479 28.9968C13.6412 28.4618 13.3562 27.8118 12.9923 27.0548C12.2454 25.501 12.3148 24.3187 12.5775 22.6399C12.7016 21.6652 12.711 20.7294 12.7498 19.7449C12.8205 17.9505 12.0785 15.9984 10.8752 14.6706C10.7038 14.4815 10.2649 14.1407 10.2436 13.9083C10.3975 13.8572 10.6627 14.0433 10.8069 14.1271C12.6262 15.1845 15.0344 14.1453 16.9416 13.7539C18.1908 13.4975 19.0187 13.38 20.3045 13.3712C20.3616 13.0299 20.4354 12.6917 20.5256 12.3578C20.7571 11.4969 20.9977 10.9844 21.4012 10.2024C21.6636 9.70569 21.8679 9.13379 22.153 8.65343C23.0039 7.21962 24.049 5.84408 25.1209 4.56788C25.4242 4.20681 25.7765 3.87752 26.0542 3.4991C26.311 3.15303 26.5295 2.76949 26.7948 2.43031C27.3143 1.76616 27.9141 1.14228 28.3755 0.433624C28.5225 0.207867 28.5262 0.144272 28.7656 0.00671437ZM24.1212 44.4029C23.2992 46.144 21.2062 48.9472 19.8817 50.389C19.4256 50.8853 18.0467 51.7665 17.3897 51.9953C16.583 52.2768 15.7365 52.351 14.8982 52.5274C15.2425 53.2817 16.1221 54.4717 16.6878 55.0982C17.2796 55.754 17.9631 56.3648 18.5179 57.0763C18.7909 57.3965 19.2271 57.6809 19.5227 57.9822C20.1424 58.6137 20.7702 59.1149 21.4722 59.6532C21.699 59.8408 21.9872 60.0922 22.2207 60.2587C22.2552 59.6318 22.3047 59.2349 22.81 58.7971C23.6957 58.0296 24.7699 57.9658 25.7995 58.4187C26.079 57.7287 26.4103 57.2993 27.066 56.9159C27.6362 56.5829 28.1982 56.221 28.4641 55.585C28.6235 55.2037 28.588 54.6448 29.1715 54.738C29.3991 55.0265 29.6447 55.8813 29.9065 56.1439C30.954 57.1962 31.567 56.85 32.2295 58.4282C33.427 57.8738 34.9494 58.1096 35.6506 59.3779C35.7405 59.5403 35.8089 60.0605 35.8526 60.2736L35.8926 60.2315C36.4384 59.6631 37.1673 59.246 37.7234 58.7192C38.6464 57.8458 39.5974 57.0594 40.3827 56.0541C40.6231 55.7462 41.0654 55.4366 41.3144 55.1139C41.8664 54.47 42.7918 53.2735 43.1303 52.5225C42.4085 52.4038 41.3952 52.283 40.7096 52.0295C37.7724 50.9438 36.0571 47.8203 34.4213 45.3357C34.2412 45.062 34.052 44.6205 33.8768 44.3922C33.2164 45.5504 32.5456 46.5751 31.9788 47.7919C31.3485 49.1442 30.4259 50.4311 29.8051 51.7962C29.714 51.9965 29.6134 52.1878 29.545 52.398C29.4269 52.7034 29.2394 53.6494 29.0478 53.8439C28.7713 53.7726 28.6863 52.9961 28.5854 52.7187C27.8941 50.8173 26.683 49.1937 25.8358 47.3554C25.4325 46.4803 24.671 45.2095 24.1212 44.4029ZM24.8207 43.0345C25.6861 44.5513 26.6504 46.0141 27.3631 47.6093C27.5629 48.0569 27.9129 48.507 28.1048 48.9686C28.306 49.3231 28.8699 50.9484 29.0228 51.0522L29.0516 51.046C29.463 50.0626 29.7577 49.1352 30.3125 48.2053C30.6192 47.6909 31.062 46.7981 31.3085 46.2478C31.5629 45.6803 33.124 43.4281 33.1397 42.9974C32.9838 42.675 32.7765 42.3436 32.5819 42.0436C32.039 41.2122 31.6206 40.3161 31.149 39.4468C31.0682 39.2976 30.6947 38.7028 30.5887 38.5771C30.1658 38.0771 29.3951 36.0641 28.9833 35.7667C28.233 37.0363 27.6587 38.3314 26.8078 39.5565C26.4403 40.0857 26.1728 40.9727 25.7612 41.5156C25.4695 42.0118 25.091 42.5571 24.8207 43.0345ZM45.0658 51.2064C45.5229 51.1882 45.9962 51.1202 46.434 51.1091C47.6682 50.9067 48.1806 50.7192 49.2928 50.1322C50.6396 49.4212 51.7898 48.648 52.6584 47.3607C53.55 46.1316 54.062 45.0323 54.4343 43.5493C54.5427 43.119 54.5633 42.4928 54.612 42.0423C54.6919 41.2996 54.7406 40.5844 54.6812 39.8343C54.652 39.4662 54.7142 38.7684 54.6305 38.4287C54.3115 37.1365 53.717 35.6797 52.956 34.5818C52.7499 34.285 52.4914 34.0934 52.228 33.8879C50.9278 32.8733 48.7804 32.2481 47.1476 32.2534C46.4645 32.2643 45.1136 32.3651 44.4721 32.5772C43.0821 33.0371 41.5127 34.428 40.4697 35.4503C40.2388 35.6766 39.7561 36.208 39.5859 36.4504C39.8093 36.8083 40.1012 37.0595 40.3922 37.3585C41.1243 38.1111 41.8763 38.8137 42.6834 39.4847C43.0182 39.763 43.3397 40.2959 43.6398 40.6199C44.1926 41.3037 45.0027 42.6701 45.2855 43.5237C45.9216 45.4449 45.8206 47.8335 45.452 49.8037C45.3708 50.2365 45.1981 50.7843 45.0658 51.2064ZM20.1081 36.4209C20.9526 37.4419 21.7615 38.4131 22.5392 39.4905C23.0242 40.1628 23.5925 41.2481 24.0902 41.8498L24.5144 41.1124C24.9351 40.4043 25.3077 39.7024 25.6787 38.9675C25.9424 38.4448 26.3905 37.9221 26.6528 37.4028C27.1183 36.4815 27.628 35.6134 28.1296 34.7159C27.6639 33.9451 27.2277 33.4062 26.6144 32.7545C26.3306 32.4529 26.0859 31.984 25.8003 31.6676C25.2307 30.9889 24.6605 30.3425 24.1197 29.6387C23.9681 29.4413 23.2131 28.3562 23.1028 28.2916C22.7461 29.4528 22.6068 30.7314 22.2585 31.9079C22.1459 32.2878 22.0848 32.7425 21.934 33.1168C21.5647 33.9333 21.0231 34.7604 20.6051 35.5645C20.4532 35.8566 20.2507 36.1011 20.1081 36.4209ZM37.9171 36.4163C37.3771 35.3938 36.6594 34.2857 36.1395 33.2263C35.8027 32.54 35.0698 28.4304 34.8599 28.2975C34.0252 29.4873 33.1677 30.596 32.2018 31.6855C31.926 31.9967 31.6952 32.4044 31.4281 32.7291C30.7854 33.41 30.3711 33.9212 29.8863 34.7305C30.3756 35.5556 30.8447 36.3726 31.2685 37.2345C31.5484 37.8038 32.027 38.3657 32.3049 38.9209C32.6998 39.7102 33.1009 40.4323 33.5437 41.1953L33.9522 41.8556C34.4943 41.0514 34.9861 40.2155 35.5319 39.4143C36.2467 38.364 37.1565 37.4158 37.9171 36.4163ZM12.9478 51.1953C12.8055 50.6866 12.6445 50.1879 12.5403 49.6694C12.1584 47.7704 12.0772 45.3262 12.7365 43.4829C12.9222 42.9636 13.1939 42.4619 13.464 41.9817C13.9434 41.1293 14.5586 40.3314 15.2197 39.6109C15.6271 39.1665 18.4725 36.8485 18.3508 36.3935C18.2802 36.1293 17.9198 35.8298 17.7298 35.6378C16.7413 34.6388 15.5742 33.5666 14.3229 32.9122C13.305 32.3799 12.0497 32.2594 10.9103 32.2539C9.09995 32.269 6.64466 32.9533 5.33035 34.2725C4.48061 35.1255 3.62995 37.3525 3.36509 38.5173C3.36105 39.1929 3.27881 40.0874 3.29468 40.7481C3.35301 43.1812 3.7763 45.0945 5.18925 47.1208C6.52647 49.0387 8.16998 50.0234 10.3133 50.854C10.6648 50.9904 11.2449 51.0584 11.6236 51.1083C12.013 51.138 12.5699 51.1977 12.9478 51.1953ZM21.2712 14.8793C21.1892 15.9836 20.949 17.0251 21.0273 18.1536C21.2098 20.7856 22.0546 23.8358 23.3827 26.122C23.655 25.7795 23.8492 25.4906 24.0906 25.129C25.0756 23.4951 25.5102 20.5845 25.1443 18.6991C24.8159 17.0065 23.0703 15.0526 21.2712 14.8793ZM30.6205 65.4786C31.236 64.4498 32.1078 63.5088 32.943 62.6543C34.0482 61.5245 34.5796 61.569 34.512 59.8762C34.0639 59.4756 33.8092 59.394 33.1887 59.4067C32.9748 59.4727 32.6083 59.7357 32.4582 59.9129C30.9931 61.6424 30.6349 64.2796 30.0631 66.3471C30.3039 66.0474 30.4391 65.8207 30.6205 65.4786ZM36.6367 14.8828C35.2924 15.147 34.3768 15.8904 33.6265 17.0119C32.7448 18.3297 32.6392 19.5322 32.793 21.0687C32.9476 22.612 33.1426 23.8803 33.9893 25.2242C34.1958 25.5414 34.3834 25.8345 34.6514 26.1052C36.2756 23.2077 37.3791 19.095 36.835 15.7669C36.7966 15.5336 36.795 15.0909 36.7134 14.9126L36.6367 14.8828ZM36.4953 13.616C36.1878 12.342 35.9862 11.8518 35.4482 10.6819C34.6048 8.8472 33.5944 7.44467 32.3453 5.867C31.9318 5.34481 31.4058 4.84891 30.9907 4.32247C30.6877 3.88094 29.3816 2.01722 28.9772 1.75932C28.7225 2.09162 28.0244 2.83688 27.8634 3.11478C27.2525 4.16906 26.4776 4.85377 25.7561 5.75872C24.0298 7.9242 22.0102 10.8475 21.5482 13.6219C23.3594 14.0004 24.5569 14.9244 25.5492 16.4679C26.4501 17.8693 26.6073 19.1539 26.4941 20.7732C26.4637 21.2096 26.3861 21.8232 26.3881 22.2358C26.8222 21.6391 27.1217 20.9928 27.4859 20.3479C27.8061 19.7809 28.1939 19.2454 28.4048 18.6188C28.4472 18.4928 28.7419 18.3643 28.8882 18.3405C28.9454 18.3317 29.0029 18.3247 29.0604 18.3194C29.229 18.35 29.4819 18.3999 29.5536 18.5605C29.8471 19.2187 30.2334 19.843 30.5949 20.4607C30.9573 21.0803 31.2096 21.6565 31.6503 22.2199C31.3741 19.6177 31.2339 17.9252 32.9942 15.7401C33.9019 14.6131 35.0537 13.8812 36.4953 13.616ZM24.5263 59.4121C24.0352 59.4677 23.9043 59.5123 23.5118 59.8486C23.4076 61.4821 23.9913 61.588 25.0462 62.6321C25.9903 63.5665 26.8077 64.4877 27.4836 65.6365C27.6415 65.9163 27.7339 66.068 27.9228 66.326C27.7189 65.0508 27.2712 63.6122 26.9027 62.3625C26.6705 61.5752 25.5827 59.2513 24.5263 59.4121ZM28.9873 56.4642C28.8269 56.7004 28.7093 56.8751 28.5139 57.08C27.8979 57.7267 26.8031 58.3825 27.0048 59.4199C27.1793 60.3173 27.7738 60.9475 28.0469 61.8003C28.2978 62.5834 28.5001 63.3888 28.7253 64.1794C28.7798 64.3711 28.9329 65.0532 29.0092 65.1806L29.0419 65.1975C29.3249 63.9803 29.6554 62.7396 30.0512 61.5534C30.3443 60.6754 31.4784 59.523 30.8678 58.5395C30.5009 57.9476 29.9358 57.5066 29.4549 57.0132C29.334 56.8887 29.0655 56.5272 28.9873 56.4642ZM33.9897 27.3351C32.7142 25.8754 31.5286 24.3393 30.4399 22.7352C30.0652 22.1706 29.3347 20.6481 28.995 20.3052C28.4114 21.135 28.0669 22.031 27.4451 22.9268C26.7183 23.9644 25.9628 24.9815 25.1795 25.9771C24.8395 26.4007 24.3229 26.9427 24.031 27.3344C24.6899 28.4529 25.9214 29.8267 26.7536 30.8363C27.0652 31.2144 27.367 31.671 27.668 32.0283C28.1981 32.6575 28.5834 32.9894 29.0138 33.7211C29.4609 32.9541 29.829 32.6485 30.3781 31.9967C30.6819 31.6358 30.9791 31.161 31.3097 30.7716C32.1305 29.8056 33.3528 28.4095 33.9897 27.3351ZM38.6929 37.4546C37.5144 38.8743 36.4038 40.272 35.4622 41.8593C35.2293 42.2521 34.8797 42.6961 34.6823 43.0946C35.4074 44.9396 37.6529 47.9654 39.012 49.4707C39.3039 49.7938 40.4384 50.556 40.8679 50.7423C40.9005 50.7567 40.9335 50.7703 40.9664 50.7835C41.6095 50.997 42.9543 51.2558 43.6456 51.2851C44.4078 49.9711 44.5921 46.8842 44.4247 45.3711C44.2289 43.6008 43.0944 41.7967 41.8965 40.5214C41.591 40.1962 41.1004 39.8165 40.7521 39.4847C40.057 38.817 39.3707 38.1402 38.6929 37.4546ZM19.298 37.4512C18.5786 38.1991 17.8425 38.9308 17.0904 39.6455C16.7868 39.9291 16.3897 40.2399 16.1132 40.5193C15.8568 40.7782 15.4919 41.2612 15.2647 41.5593C13.9107 43.3345 13.4342 44.987 13.5246 47.2132C13.5676 48.2721 13.8395 50.4138 14.3785 51.3008C15.1098 51.2216 16.4429 51.018 17.1042 50.7472C18.2498 50.2588 19.4094 49.1698 20.1235 48.1632C21.1479 46.7198 22.7219 44.7298 23.3535 43.0946C22.2958 41.4121 21.2726 39.7996 20.0021 38.2684C19.8634 38.1013 19.4342 37.5557 19.298 37.4512Z" fill="var(--fill-0, #AE1919)"/>
<path id="Vector_2" d="M32.7721 49.0615C33.0957 48.9432 33.4535 49.111 33.5694 49.4354C33.6852 49.7593 33.5145 50.1159 33.1897 50.2292C32.8681 50.3413 32.5161 50.1732 32.4015 49.8525C32.2869 49.5318 32.4526 49.1786 32.7721 49.0615Z" fill="var(--fill-0, #AE1919)"/>
<path id="Vector_3" d="M24.9838 49.0284C25.3205 49.0037 25.6149 49.2534 25.6447 49.5898C25.6745 49.9261 25.4285 50.2237 25.0926 50.2583C24.8712 50.281 24.6546 50.1829 24.5259 50.0011C24.3972 49.8194 24.3762 49.5828 24.471 49.3812C24.5658 49.1801 24.7617 49.0453 24.9838 49.0284Z" fill="var(--fill-0, #AE1919)"/>
<path id="Vector_4" d="M15.0662 34.808C15.4004 34.7587 15.7131 34.9845 15.7714 35.3172C15.8297 35.6499 15.6124 35.9685 15.2813 36.0357C15.0591 36.0809 14.8299 36.0018 14.6827 35.8292C14.5356 35.6567 14.4937 35.4179 14.5735 35.2056C14.6532 34.9933 14.8419 34.8411 15.0662 34.808Z" fill="var(--fill-0, #AE1919)"/>
<path id="Vector_5" d="M42.7832 34.807C43.1241 34.7629 43.4366 35.0037 43.4803 35.3447C43.524 35.6857 43.2832 35.9976 42.9419 36.0412C42.6014 36.0847 42.2897 35.844 42.246 35.5034C42.2023 35.1628 42.4427 34.8511 42.7832 34.807Z" fill="var(--fill-0, #AE1919)"/>
<path id="Vector_6" d="M24.784 10.8168C25.4957 10.8636 26.2031 10.8103 26.9146 10.823C27.6697 10.8365 28.4142 10.9291 29.1738 10.9299C29.9021 10.9308 33.2986 10.6258 33.7446 10.9727C33.8918 11.0869 33.9759 11.2635 33.9874 11.4481C33.9969 11.6027 33.9598 11.7714 33.8518 11.8873C33.6947 12.0558 33.4808 12.0716 33.2644 12.0855C32.6757 12.1706 31.8479 12.0689 31.2341 12.0898C30.6021 12.1113 29.9871 12.1777 29.3566 12.1977C28.5599 12.223 27.7631 12.1405 26.972 12.0967C26.5001 12.0706 24.6222 12.1897 24.3287 12.0093C24.1777 11.9178 24.0718 11.7673 24.0367 11.5943C23.9271 11.0535 24.3346 10.8754 24.784 10.8168Z" fill="var(--fill-0, #AE1919)"/>
<path id="Vector_7" d="M24.5365 8.87064C24.9611 8.84747 25.6456 8.94941 26.1232 8.9518L31.5017 8.9567C32.3056 8.95052 34.1578 8.48953 33.9438 9.62571C33.8911 9.90464 33.7006 9.99837 33.4693 10.0826C31.8315 10.3043 30.0375 10.1996 28.3632 10.2172C27.1322 10.1771 25.8342 10.3183 24.6219 10.0855C23.8894 9.94483 23.8544 9.19861 24.5365 8.87064Z" fill="var(--fill-0, #AE1919)"/>
<path id="Vector_8" d="M24.85 12.8708C25.1141 12.8741 25.3975 12.9284 25.6733 12.9201C26.1361 12.9114 26.5996 12.8658 27.0625 12.863C28.0453 12.8573 29.0227 12.9224 30.0061 12.8678C30.2604 12.8643 30.5193 12.8551 30.7737 12.8609C31.5945 12.8797 32.4029 12.9462 33.2249 12.8968C33.4833 12.8812 33.734 13.0713 33.8045 13.3154C33.8535 13.4839 33.8564 13.7392 33.7525 13.8942C33.6227 14.0818 33.4104 14.1057 33.2014 14.1278C32.184 14.243 31.4296 14.1092 30.4278 14.1117C29.9723 14.0833 29.4038 14.2147 28.966 14.1777C27.786 14.0779 26.6366 14.1466 25.4606 14.1799C25.106 14.1899 24.2594 14.165 24.1857 13.7159C24.095 13.1636 24.3577 12.9802 24.85 12.8708Z" fill="var(--fill-0, #AE1919)"/>
<path id="Vector_9" d="M28.8164 3.92617C28.9738 3.91627 29.2623 3.8861 29.3872 3.99133C29.8931 4.5019 30.3663 5.70791 30.4887 6.40701C30.6681 7.42815 30.2352 8.31793 29.1401 8.43078C27.2256 8.60777 27.2549 6.37024 27.9165 5.20574C28.1887 4.72671 28.2111 4.17871 28.8164 3.92617Z" fill="var(--fill-0, #AE1919)"/>
<path id="Vector_10" d="M19.4799 41.6561C19.803 41.5407 20.1586 41.7089 20.274 42.032C20.3894 42.3552 20.2209 42.7105 19.8977 42.8259C19.5747 42.9413 19.2193 42.7727 19.104 42.45C18.9886 42.1268 19.1569 41.7715 19.4799 41.6561Z" fill="var(--fill-0, #AE1919)"/>
<path id="Vector_11" d="M38.1422 41.6512C38.3549 41.5849 38.5866 41.6385 38.7486 41.791C38.9106 41.9439 38.9778 42.1722 38.9242 42.3882C38.8707 42.6042 38.7049 42.7749 38.4902 42.8342C38.1657 42.9241 37.8289 42.7369 37.7341 42.4138C37.6389 42.0906 37.8207 41.751 38.1422 41.6512Z" fill="var(--fill-0, #AE1919)"/>
<path id="Vector_12" d="M28.8676 28.4569C29.0919 28.4064 29.326 28.4804 29.4806 28.6506C29.6351 28.8207 29.6866 29.0607 29.6149 29.2792C29.5436 29.4977 29.3599 29.6608 29.1346 29.7065C28.7913 29.7761 28.4559 29.5563 28.3827 29.2137C28.3095 28.8712 28.5258 28.5336 28.8676 28.4569Z" fill="var(--fill-0, #AE1919)"/>
<path id="Vector_13" d="M28.9175 41.612C29.258 41.5626 29.5761 41.793 29.6347 42.1322C29.6928 42.471 29.4707 42.795 29.1333 42.8626C28.9071 42.9075 28.674 42.8267 28.5248 42.6507C28.3755 42.4747 28.3335 42.2315 28.4152 42.0156C28.4968 41.8 28.6891 41.6454 28.9175 41.612Z" fill="var(--fill-0, #AE1919)"/>
<path id="Vector_14" d="M33.2698 34.887C33.4838 34.8167 33.7192 34.8682 33.8845 35.0213C34.0502 35.1745 34.1195 35.4052 34.0659 35.6242C34.0123 35.843 33.8441 36.0156 33.6264 36.075C33.302 36.1638 32.9656 35.9774 32.8687 35.655C32.7718 35.3326 32.9499 34.9918 33.2698 34.887Z" fill="var(--fill-0, #AE1919)"/>
<path id="Vector_15" d="M24.3419 34.8934C24.666 34.7734 25.0258 34.9408 25.1427 35.2661C25.2595 35.5913 25.0886 35.9494 24.7622 36.0631C24.4403 36.1753 24.088 36.0072 23.9727 35.6863C23.8575 35.3655 24.0222 35.0117 24.3419 34.8934Z" fill="var(--fill-0, #AE1919)"/>
<path id="Vector_16" d="M23.0402 18.8862C23.9761 18.8248 24.1973 19.3717 24.2333 20.1952C24.0132 20.6402 23.8829 20.7284 23.4434 20.9231C22.3621 21.1051 21.7468 19.5629 23.0402 18.8862Z" fill="var(--fill-0, #AE1919)"/>
<path id="Vector_17" d="M34.5611 18.8859C35.7793 18.7915 36.213 20.3734 34.9412 20.9361C33.679 21.0043 33.2993 19.4373 34.5611 18.8859Z" fill="var(--fill-0, #AE1919)"/>
<path id="Vector_18" d="M2.35401 19.3644C3.74717 19.2627 4.96072 20.3054 5.06971 21.6978C5.17875 23.0902 4.1423 24.3091 2.75033 24.4255C1.3479 24.5427 0.117732 23.4969 0.00787056 22.0941C-0.10195 20.6913 0.950455 19.4668 2.35401 19.3644Z" fill="var(--fill-0, #AE1919)"/>
<path id="Vector_19" d="M57.8041 20.9627C58.164 21.2914 57.9991 22.5826 57.7839 22.9914C56.7154 25.0232 53.8314 24.8882 53.0485 22.669C52.8808 22.1367 52.9339 21.6237 53.0345 21.0888C53.15 21.4656 53.2514 21.7839 53.4859 22.1082C53.8536 22.6181 54.4098 22.9602 55.031 23.0587C56.4553 23.2742 57.5914 22.3781 57.8041 20.9627Z" fill="var(--fill-0, #AE1919)"/>
<path id="Vector_20" d="M37.9439 28.4612C38.1632 28.397 38.3998 28.458 38.561 28.6201C38.7218 28.7822 38.7812 29.0194 38.7156 29.2383C38.6497 29.4571 38.4695 29.6224 38.2457 29.669C37.9183 29.7371 37.5956 29.5346 37.5144 29.2102C37.4331 28.8858 37.6228 28.5552 37.9439 28.4612Z" fill="var(--fill-0, #AE1919)"/>
<path id="Vector_21" d="M19.7835 28.4532C20.1172 28.3902 20.4393 28.6078 20.5056 28.9408C20.5718 29.2738 20.3574 29.598 20.025 29.6675C19.6879 29.738 19.3582 29.52 19.291 29.1823C19.2238 28.8446 19.4451 28.517 19.7835 28.4532Z" fill="var(--fill-0, #AE1919)"/>
</g>
</svg>
