<svg preserveAspectRatio="none" width="100%" height="100%" overflow="visible" style="display: block;" viewBox="0 0 108.064 107.669" fill="none" xmlns="http://www.w3.org/2000/svg">
<path id="Vector" d="M53.8212 0C54.11 0.175435 54.5513 0.480524 54.7769 0.720274C59.2984 5.52606 62.4101 7.28412 62.7932 13.9763C68.1338 10.7868 74.7436 9.85604 74.1312 18.3524C73.7646 23.4349 68.0025 30.5261 64.2805 33.6967C66.7398 35.7757 71.9002 41.1209 74.1268 43.5201C76.5036 40.9771 83.3218 35.3561 86.5819 34.3523C96.0676 31.4315 97.968 37.7977 93.977 45.167C100.861 45.5378 103.05 49.2239 108.064 53.8422C102.778 58.4469 101.432 61.891 94.0171 62.6793C96.7117 67.4264 97.7812 73.669 90.4294 74.0718C85.0669 74.3657 77.5772 67.711 74.077 64.1784C72.6449 66.1311 66.2385 72.2376 64.3034 73.8708C68.0126 77.3875 76.3531 86.6701 73.9104 92.7151C71.9534 97.5572 66.4798 95.6523 62.8514 94.0047C62.059 101.224 58.9244 102.069 54.4366 107.669C54.0605 107.472 53.8255 107.356 53.5138 107.06C48.6388 102.421 45.755 100.443 45.2403 93.666C40.5144 96.6743 34.0396 97.4862 33.7343 90.1522C33.5111 84.7952 40.1306 77.3731 43.756 73.9297C41.6809 72.3582 35.6886 66.224 33.9006 64.212C33.5966 64.5464 33.0603 65.135 32.7149 65.4061C25.9382 70.7227 23.9671 74.3327 15.1735 73.9233C10.0971 70.7244 11.774 67.1887 13.8972 62.7055C7.09321 61.9879 4.7168 58.256 0 53.692C6.16304 48.73 5.73516 46.4594 13.843 44.8758C12.3581 42.1877 10.8085 37.6809 13.366 35.2275C19.2947 29.5401 29.9446 39.6558 33.9959 43.5157C35.8118 41.2785 41.5048 35.7595 43.717 33.7634C41.0995 31.575 35.1556 24.1525 34.2692 20.8122C32.0019 12.27 37.9963 9.6109 45.1824 13.8914C45.7486 7.20868 49.3663 4.95293 53.8212 0ZM83.9671 53.8765C87.1188 56.5127 89.1828 58.7456 92.6483 61.2128L96.7029 61.0852C101.316 59.1864 102.368 57.5192 105.768 53.859C100.722 48.6333 99.9963 46.5688 92.7193 46.3725C90.1298 48.0605 86.3078 51.65 83.9671 53.8765ZM2.41244 53.8109C5.00767 56.8155 7.98329 60.6407 12.2251 61.2081C16.1329 61.2963 17.3624 60.1588 20.2973 57.3357C21.524 56.1508 22.7444 54.9591 23.958 53.7607C21.795 51.8507 16.619 46.3395 14.1494 46.4708C10.3351 46.5533 8.54854 47.2921 5.8439 50.1142C4.68717 51.3342 3.54324 52.5666 2.41244 53.8109ZM46.5579 92.6282C46.7505 98.0333 49.302 102.711 54.1598 105.411C59.1365 100.44 61.0251 100.173 61.4022 92.872C60.1815 90.2539 56.1821 85.8155 53.9558 83.9824C51.6127 86.4617 48.3917 89.7875 46.5579 92.6282ZM61.317 15.0683C61.214 10.7032 60.7151 8.73272 57.5014 5.30012C56.9416 4.70209 54.5716 2.70293 53.8562 2.50022C48.8754 6.86826 46.5603 8.24143 46.7128 15.1881C47.8052 16.7691 52.6314 23.1777 54.2521 23.5013C56.7706 20.9149 59.5216 18.2099 61.317 15.0683ZM74.9813 44.4761C77.0422 47.184 79.3257 49.2152 81.8351 51.4942L82.9562 52.5256C84.2321 52.1919 89.8336 46.9722 91.1502 45.7203C94.2743 42.7497 97.8273 35.414 90.4469 35.0005C84.5438 35.5528 78.9349 40.209 74.9813 44.4761ZM44.7909 72.7484C47.5575 70.6803 50.1385 66.4644 53.0812 63.6332C50.3439 61.0084 46.8044 57.5593 44.2172 54.7746C41.3762 57.5155 37.2442 60.5404 34.9873 62.9897C36.5453 65.0239 42.7599 71.3618 44.7909 72.7484ZM66.8242 13.4385C61.4025 15.9155 59.5644 20.4189 55.0846 24.6054C57.5627 27.3393 59.6893 29.7126 62.3963 32.2067L63.1171 32.6855C66.491 31.2703 81.1813 12.1226 66.8242 13.4385ZM83.1228 54.7277C80.437 57.7809 77.497 59.8878 75.0038 63.022C77.5509 65.9923 83.7685 71.1931 87.5683 72.2979C89.2956 72.5818 91.5384 73.0128 93.0668 71.9282C93.9616 71.2864 94.5635 70.3139 94.7386 69.2266C95.6064 63.7086 86.2304 58.5089 83.1228 54.7277ZM47.2195 30.8204C49.1471 28.8243 51.0458 26.8002 52.9146 24.7492L52.5792 24.4101C47.4767 19.205 45.99 14.0015 38.8137 13.0738C28.8468 15.4535 41.2581 29.7533 44.7926 32.865C45.5463 32.2232 46.4489 31.4077 47.2195 30.8204ZM63.8802 54.8133C60.9265 57.7132 57.8859 60.6367 54.9796 63.5743C56.6194 65.3505 62.027 72.2238 63.4571 72.5868L63.7897 72.3649C65.5988 70.8196 71.7046 64.9054 73.1768 62.9517C71.1297 61.1791 65.376 56.6431 63.8802 54.8133ZM24.7787 55.0268C21.1392 58.4957 9.71232 65.6761 14.5204 71.5877C15.8834 73.2636 19.2526 72.4447 21.1322 72.0763C24.4731 70.8264 30.558 65.7431 33.1421 63.2197C31.6696 61.5411 26.4438 55.9157 24.7787 55.0268ZM54.1622 62.6779C57.015 59.6861 59.9236 56.7475 62.8858 53.8637C59.9179 50.8951 56.9453 47.878 53.9444 44.9475C51.0263 47.9248 48.0692 50.8631 45.0733 53.762C46.3405 55.0379 53.158 62.0846 54.1622 62.6779ZM62.2586 73.767C59.0325 70.7988 57.1395 67.3998 54.0033 64.5171C51.0812 67.546 48.6532 71.0274 45.7988 73.6876C47.4487 75.353 52.6789 81.0026 54.0555 82.1068C56.5968 79.4921 59.631 76.1686 62.2586 73.767ZM65.9382 93.9569C68.6583 94.723 70.9492 95.3617 72.6402 91.9901C74.6086 88.0642 66.126 75.9901 63.1157 74.8937C59.998 77.6074 57.8051 80.3427 54.9994 82.8671C58.5575 86.5233 61.8741 91.5995 65.9382 93.9569ZM73.9642 45.6731C70.895 48.6151 67.4386 50.947 64.6111 53.8199C67.7659 56.8215 71.0596 59.1453 73.9393 61.8788C76.3804 59.6558 80.0478 56.2309 82.3145 53.8462C79.6247 51.2281 76.5383 48.3562 73.9642 45.6731ZM63.1888 34.8648C60.1226 37.9223 57.9899 41.0569 54.9695 43.9858C56.4285 45.5014 62.6303 52.1589 63.9604 52.5872L64.3617 52.3659C67.308 49.3061 70.4452 47.4558 73.267 44.6202C70.9869 42.3372 65.3672 36.3286 63.1888 34.8648ZM53.8983 25.7264C51.2842 28.3959 48.5519 31.2804 45.8257 33.8041C47.6521 35.7838 52.6223 42.153 54.1187 43.1032C57.2183 39.977 59.258 36.7643 62.2963 33.8796C59.7182 31.8511 55.8912 26.9514 53.8983 25.7264ZM43.3329 53.8671C40.7181 51.3662 36.0171 47.7497 34.0942 45.6156C31.3239 48.403 28.4873 51.0406 25.75 53.7775C27.072 55.1682 33.1192 61.3387 34.213 61.729L34.7183 61.3946C37.6017 58.5675 40.7026 56.6865 43.3329 53.8671ZM44.6552 34.8362C42.8686 36.4252 36.4763 42.6914 34.92 44.5427C37.6313 47.6016 41.2625 49.9933 44.3596 52.8609C47.2174 49.8974 50.1328 46.9901 53.1044 44.1407C51.2407 42.2304 45.9362 35.5316 44.6552 34.8362ZM28.1112 49.6435C30.3079 47.8386 31.3229 46.6628 33.1179 44.438C27.6302 39.738 23.1514 34.4217 15.4222 35.2639C8.29739 41.0192 21.0918 49.2017 24.9107 52.6825L28.1112 49.6435ZM44.6094 74.8678C41.1184 78.5715 35.1789 84.9494 35.1176 90.1145C35.0583 95.1058 39.2601 94.8466 42.6175 93.7283C46.2058 91.7372 49.5521 86.2034 53.0411 82.9486C51.3889 81.3279 46.0951 75.4045 44.6094 74.8678Z" fill="var(--fill-0, #EDEAEC)" fill-opacity="0.7"/>
</svg>
