<svg preserveAspectRatio="none" width="100%" height="100%" overflow="visible" style="display: block;" viewBox="0 0 42.6073 42.1639" fill="none" xmlns="http://www.w3.org/2000/svg">
<path id="Vector" d="M5.40431 0.0133543C5.76351 0.000895328 6.13383 0.0227812 6.49472 0.00661827C13.6953 -0.31462 17.0133 11.1395 17.3204 16.6794C17.4705 19.3857 17.2965 22.8553 17.2264 25.5565C20.9444 25.6108 25.0387 24.7457 28.618 25.473C33.3227 26.4287 43.9126 30.0566 42.4741 36.5342C41.9345 38.9634 39.3174 40.2167 37.3513 41.3834C29.3919 41.8939 24.2786 37.6458 19.7035 31.5133C19.1888 30.6415 17.8506 28.2951 17.0201 28.0399C16.2347 30.4798 16.8477 31.3971 16.4986 33.2706C16.0068 35.9119 13.9657 39.1991 11.6458 40.6396C8.34395 42.6903 7.06164 42.3081 3.51672 41.5878C1.04807 39.4321 -1.18559 35.658 0.709073 32.542C4.20551 26.7913 9.64273 25.9906 15.5307 25.8111C11.0092 22.9466 7.82079 20.9855 4.54014 16.5006C0.53368 11.023 -1.28727 4.44335 5.40431 0.0133543ZM18.6471 27.0671C22.2758 32.8975 28.3527 40.9645 36.238 39.9325C50.1706 34.7687 31.901 26.2738 24.0712 26.7789L18.6471 27.0671ZM13.7704 22.8169L15.088 23.5661C17.3638 22.0596 14.6548 7.49848 11.8343 4.93026C9.35894 2.67654 10.2857 1.19493 5.6366 1.42391C-1.75723 9.49932 6.4752 18.5071 13.7704 22.8169ZM3.90287 39.9092C11.092 42.4748 14.6618 37.0895 14.9648 30.5802C15.017 29.4538 15.2311 28.6817 14.9685 27.5109L14.5056 27.4722C9.84742 27.585 6.92495 27.8002 3.3696 31.2984C0.705691 33.9192 1.56888 37.4969 3.90287 39.9092Z" fill="var(--fill-0, #EDEAEC)" fill-opacity="0.7"/>
</svg>
