<svg preserveAspectRatio="none" width="100%" height="100%" overflow="visible" style="display: block;" viewBox="0 0 56.0001 144.629" fill="none" xmlns="http://www.w3.org/2000/svg">
<g id="Group 44">
<path id="Vector" d="M4.62239 112.541C1.12382 108.072 0.273082 106.001 2.55328 100.465C4.23067 96.3923 6.85751 97.3782 7.90862 101.074C9.14595 105.421 8.30966 108.423 6.21164 112.233C6.97627 113.567 7.70344 114.753 8.75734 115.887C9.51124 116.698 10.0817 117.094 10.7128 118.017C12.9668 115.546 15.9062 113.589 19.3601 114.665C20.8322 115.123 21.6576 115.956 22.7473 116.973C23.554 116.042 26.4577 112.92 26.509 111.872L26.5929 111.688C26.9722 112.231 27.3531 112.726 27.8163 113.201L27.8987 113.701L27.4168 113.221C27.0266 113.359 23.7483 117.428 23.3815 117.987C24.639 119.198 26.7095 121.197 27.7883 122.539C28.6634 121.023 29.4857 120.048 30.6982 118.792C31.0837 118.394 31.5127 118.02 31.4863 117.45L31.4956 117.313L31.9184 117.286L32.0708 117.107C31.8531 116.452 31.4319 116.303 30.8676 115.661L30.9065 115.341C31.5065 115.822 32.206 116.706 32.5884 116.797C33.1309 116.644 33.2925 116.526 33.7884 116.242C33.2102 117.508 31.7956 116.961 31.8687 118.093C32.8697 118.383 33.0501 116.991 34.1428 117.023C33.8071 117.439 33.5615 117.603 33.4869 118.076C34.1382 119.074 36.56 119.616 37.6574 119.962C40.045 120.712 41.7627 119.218 43.3031 117.345L43.8503 117.672C43.8176 117.815 43.7368 118.12 43.729 118.25C40.7352 122.534 35.8745 121.348 32.2449 118.653C30.9733 120.172 29.7469 121.734 28.466 123.241C29.6365 124.729 31.7708 126.461 33.277 127.657C34.3263 126.77 35.2154 126.212 36.4512 125.647C37.9636 124.955 39.5414 124.128 41.2481 124.246C43.5782 124.406 45.0938 127.07 44.7083 129.184C44.5389 130.123 43.9886 130.949 43.1881 131.469C39.7901 133.719 36.0548 130.618 33.1651 129.131C32.6956 129.51 31.6744 130.377 31.2112 130.654C31.3169 130.338 31.7412 129.687 31.9309 129.372L31.7847 129.279L31.976 129.204C31.648 129.332 31.3728 129.427 31.0371 129.534L32.3303 128.225C30.9531 126.926 29.335 125.555 27.8769 124.332C26.6893 125.566 25.6556 127.174 24.5457 128.204L24.3903 128.146C24.2209 127.897 24.2737 127.934 24.0032 127.83C23.6799 127.708 23.3815 127.531 23.1203 127.306C22.7379 126.98 22.7255 126.607 22.6742 126.125C23.2074 126.511 23.5074 126.888 23.938 127.375C24.9763 126.031 26.0442 124.71 27.1432 123.414C25.6199 121.998 24.2784 120.16 22.7721 118.623C19.8933 121.124 19.4161 121.595 15.4476 122.363C13.7751 121.697 12.1771 120.855 10.6817 119.853C8.10914 122.336 4.8868 125.581 1.05108 122.294C-2.04769 119.639 2.48519 114.62 4.62239 112.541ZM5.8476 122.432C7.55328 121.223 8.5646 120.563 9.98691 119.004C9.0387 118.025 5.6721 113.636 5.21416 113.34C3.75874 114.868 1.21087 117.611 1.18724 119.885C1.17356 121.209 3.04184 122.807 4.3572 122.715C4.76291 122.686 5.42075 122.536 5.8476 122.432ZM4.67415 98.8712C1.24398 103.927 1.81213 107.096 5.35826 111.642C5.78806 110.696 6.44387 109.423 6.82611 108.51C7.7625 106.274 7.65369 99.8201 4.67415 98.8712ZM38.3538 130.846C41.231 131.544 42.1404 131.583 43.8099 129.003C43.4446 126.952 43.0948 125.029 40.4849 125.256C39.117 125.518 34.9325 127.086 34.449 128.306C34.7335 129.05 37.1413 130.311 37.8983 130.653C38.0491 130.722 38.2014 130.786 38.3538 130.846ZM17.3192 120.899C18.8472 120.331 20.7856 118.92 22.0198 117.811C20.2089 115.769 18.9964 115.326 16.2715 115.443C14.1481 116.074 13.0227 117.25 11.4761 118.823C13.1502 119.897 14.7 121.488 16.7378 121.043C16.9321 121.001 17.1264 120.953 17.3192 120.899Z" fill="var(--fill-0, #AE1919)"/>
<path id="Vector_2" d="M25.8044 67.1762C25.5853 66.803 24.6029 65.1401 24.4972 64.8123C24.0821 63.5366 24.1801 60.7855 24.5625 59.4881C24.8376 58.5535 25.6428 56.285 26.5273 55.7085C26.8957 55.4694 27.0091 55.5383 27.4226 55.5528C27.9558 56.0053 29.0548 59.4756 29.162 60.4196C29.4745 63.1416 27.8408 64.5932 27.3977 67.1981C30.3403 71.9929 29.7387 73.8995 27.5066 78.8008C28.9569 79.9947 29.86 81.7267 30.0092 83.5991C30.1584 85.4296 29.4201 87.9958 28.3631 89.4932C31.5341 93.621 31.7548 96.5508 28.6351 101.044C30.0045 103.472 30.3963 104.307 31.1222 107.06C30.3139 109.531 29.6859 110.326 28.0677 112.318C29.0004 113.338 29.9455 114.346 30.9061 115.341L30.8673 115.661C31.4315 116.303 31.8528 116.452 32.0704 117.107L31.9181 117.286L31.4952 117.313L31.4859 117.45C31.102 117.218 28.2092 114.182 27.8983 113.701L27.8159 113.201C27.3527 112.726 26.9718 112.231 26.5926 111.688L26.5086 111.872C25.9148 111.452 25.1827 110.338 24.8873 109.661C23.8054 107.18 24.7226 104.302 26.2335 102.223C26.4324 101.951 26.6376 101.683 26.849 101.42C25.1873 99.4671 23.9593 98.2679 24.1925 95.472C24.3713 93.3183 25.2946 91.4978 26.7091 89.8855C22.251 86.034 23.0671 83.4535 25.9941 78.9054C22.2386 74.0992 22.223 72.5101 25.8044 67.1762ZM27.6775 100.346C29.8771 97.4004 30.9776 92.9774 27.5501 90.4342C24.9992 92.7522 24.0184 98.724 27.6775 100.346ZM27.6791 111.002C28.6289 109.731 29.6128 108.454 29.9703 106.894C29.6952 105.57 28.8527 102.805 27.6262 102.034C26.6811 103.133 26.0407 103.937 25.7298 105.39C25.3272 107.279 25.7112 109.707 27.0744 111.137L27.3806 111.254L27.6791 111.002ZM27.2128 89.0197C28.4998 88.5602 29.1854 83.5637 28.4563 82.2171C27.9325 81.2488 27.561 80.5865 26.7511 79.8C24.9821 82.1617 24.6744 82.8204 24.679 85.7547C25.4065 87.1164 26.1309 87.9173 27.2128 89.0197ZM26.3951 77.7471L26.6019 77.9706C28.2465 76.1661 28.9009 69.5498 26.4309 68.2771C25.1749 69.8473 24.0573 72.0903 24.292 74.1544C24.3215 74.4218 24.3588 74.6885 24.3992 74.9543L26.3951 77.7471ZM26.4666 66.0739C27.5237 63.5792 29.3843 59.7229 26.933 57.279C24.8764 59.999 24.5982 63.116 26.4666 66.0739Z" fill="var(--fill-0, #AE1919)"/>
<path id="Vector_3" d="M49.9843 110.808C45.1174 107.366 45.2697 101.924 48.3071 97.3111C48.6864 96.7342 49.1356 96.4205 49.7916 96.2498C50.3854 96.3749 51.4828 97.9044 51.845 98.4449C54.1036 101.812 53.8844 106.822 51.5792 110.135C53.1756 111.786 56.2907 114.853 55.9782 116.892C55.2927 121.362 48.548 121.463 45.649 119.002C45.0847 118.524 44.2485 118.111 43.7293 118.25C43.7371 118.12 43.8179 117.815 43.8505 117.672L43.3034 117.345C42.0116 116.654 41.194 115.684 39.4002 115.376C37.9126 115.12 36.0535 115.682 34.8503 116.531L34.1431 117.023C33.0503 116.991 32.87 118.383 31.8689 118.093C31.7959 116.961 33.2104 117.508 33.7887 116.242C35.5763 114.497 37.5053 114.17 39.9023 114.519C41.7738 114.791 42.6443 115.824 44.163 116.604C46.3811 115.047 48.363 112.981 49.9843 110.808ZM45.0583 117.081C46.5273 118.519 47.4086 119.323 49.4776 119.579C52.0082 119.687 53.6668 119.559 54.8901 117.069C54.3958 115.093 53.1398 112.142 50.9372 111.54C49.633 112.332 48.5232 114.183 47.376 115.302C46.5925 116.064 45.9879 116.49 45.0583 117.081ZM50.3963 109.708L50.7149 109.775C52.9564 106.441 53.1725 99.9514 49.5491 97.4812C48.6724 98.9916 47.861 100.262 47.4832 102.017C46.9314 104.582 47.9729 108.4 50.3963 109.708Z" fill="var(--fill-0, #AE1919)"/>
<path id="Vector_4" d="M12.7269 127.22C14.2363 124.691 16.2493 123.68 19.212 124.13C20.3732 124.306 22.0023 125.166 22.6738 126.125C22.7251 126.607 22.7375 126.98 23.1199 127.306C23.381 127.531 23.6795 127.708 24.0028 127.83C24.2733 127.934 24.2204 127.897 24.3899 128.146L24.5453 128.204C25.5091 128.956 27.7801 131.531 28.534 132.549C29.061 131.688 30.1055 130.03 31.0366 129.534C31.3724 129.427 31.6475 129.332 31.9755 129.204L31.7843 129.279L31.9304 129.372C31.7408 129.687 31.3164 130.338 31.2107 130.654C30.2827 131.775 29.9392 132.408 29.3516 133.731C31.3444 135.149 32.7543 136.745 33.5377 139.081C35.4062 144.651 25.7858 147.025 24.9541 141.452C24.5096 138.472 26.3718 135.759 28.0521 133.507C26.748 131.702 25.2028 130.716 23.8474 128.934C21.8779 130.824 19.5463 132.89 16.6379 132.94C13.2182 132.999 12.5917 130.028 12.7269 127.22ZM19.2804 131.265C20.9002 130.41 22.024 129.606 23.1774 128.14C21.3012 125.829 19.5074 124.548 16.4576 124.956C14.9638 125.524 14.656 126.146 13.6767 127.381C13.0767 131.58 15.699 132.806 19.2804 131.265ZM30.0636 143.471C31.8698 143.196 32.9875 141.583 32.4745 139.789C31.8372 137.564 30.5392 135.941 28.7734 134.516C26.5536 136.851 23.8303 143.885 29.3345 143.529C29.577 143.513 29.8211 143.493 30.0636 143.471Z" fill="var(--fill-0, #AE1919)"/>
<path id="Vector_5" d="M25.1151 11.6438C24.896 11.2705 23.9136 9.60763 23.8078 9.27982C23.3928 8.00408 23.4908 5.25302 23.8731 3.95563C24.1483 3.02101 24.9535 0.752538 25.838 0.176057C26.2064 -0.0630912 26.3198 0.00579842 26.7333 0.0203596C27.2665 0.47286 28.3655 3.94309 28.4727 4.88717C28.7852 7.60912 27.1514 9.06072 26.7084 11.6656C29.651 16.4604 29.0494 18.3671 26.8173 23.2683C28.2675 24.4623 29.1707 26.1942 29.3199 28.0667C29.4691 29.8971 28.7308 32.4633 27.6737 33.9608C30.8448 38.0886 31.0655 41.0184 27.9458 45.5112C29.3152 47.9394 29.707 48.7748 30.4329 51.5277C29.6246 53.9985 28.9966 54.7931 27.3784 56.7853C26.6853 56.5737 26.6913 56.5737 25.8193 56.3392C25.8193 56.3392 24.4934 54.8052 24.198 54.1287C23.1161 51.6471 24.0333 48.769 25.5442 46.6901C25.7431 46.4181 25.9483 46.1507 26.1597 45.8879C24.498 43.9346 23.27 42.7354 23.5032 39.9396C23.6819 37.7858 24.6053 35.9653 26.0198 34.353C21.5617 30.5015 22.3778 27.921 25.3048 23.3729C21.5493 18.5668 21.5337 16.9776 25.1151 11.6438ZM26.9882 44.8136C29.1878 41.8679 30.2883 37.4449 26.8608 34.9017C24.3099 37.2197 23.3291 43.1915 26.9882 44.8136ZM26.9898 55.4694C27.9396 54.1986 28.9235 52.9216 29.281 51.3616C29.0059 50.0373 28.1634 47.2722 26.9369 46.5014C25.9918 47.6001 25.3514 48.4046 25.0405 49.8579C24.6379 51.7461 25.0219 54.1744 26.3851 55.6044L26.6913 55.7214L26.9898 55.4694ZM26.5235 33.4873C27.8105 33.0277 28.496 28.0312 27.767 26.6847C27.2432 25.7164 26.8716 25.054 26.0618 24.2675C24.2928 26.6292 23.9851 27.2879 23.9897 30.2222C24.7172 31.5839 25.4416 32.3848 26.5235 33.4873ZM25.7058 22.2147L25.9126 22.4381C27.5572 20.6336 28.2116 14.0174 25.7416 12.7446C24.4856 14.3148 23.368 16.5579 23.6027 18.6219C23.6322 18.8894 23.6695 19.156 23.7099 19.4218L25.7058 22.2147ZM25.7773 10.5414C26.8343 8.04669 28.695 4.19038 26.2437 1.74654C24.1871 4.46654 23.9089 7.5835 25.7773 10.5414Z" fill="var(--fill-0, #AE1919)"/>
</g>
</svg>
