<svg preserveAspectRatio="none" width="100%" height="100%" overflow="visible" style="display: block;" viewBox="0 0 157.805 157.228" fill="none" xmlns="http://www.w3.org/2000/svg">
<path id="Vector" d="M78.5943 0C79.0161 0.256186 79.6606 0.701702 79.9899 1.05181C86.5927 8.06962 91.1366 10.6369 91.696 20.4093C99.4948 15.7518 109.147 14.3926 108.253 26.7997C107.717 34.2217 99.3031 44.5768 93.868 49.2069C97.4591 52.2427 104.995 60.0483 108.246 63.5518C111.717 59.8383 121.674 51.63 126.434 50.1642C140.286 45.8991 143.061 55.1955 137.233 65.9568C147.286 66.4982 150.483 71.881 157.805 78.6249C150.086 85.3492 148.119 90.3785 137.292 91.5296C141.227 98.4619 142.788 107.578 132.053 108.166C124.222 108.595 113.285 98.8774 108.174 93.7188C106.082 96.5703 96.7271 105.488 93.9014 107.872C99.3179 113.008 111.497 126.563 107.93 135.39C105.073 142.461 97.0796 139.68 91.7811 137.274C90.6238 147.816 86.0465 149.049 79.4929 157.228C78.9438 156.94 78.6007 156.771 78.1454 156.338C71.0265 149.564 66.8154 146.675 66.0638 136.779C59.1626 141.172 49.7076 142.358 49.2617 131.648C48.9358 123.825 58.6022 112.987 63.8963 107.958C60.866 105.664 52.1155 96.706 49.5046 93.7679C49.0607 94.2562 48.2775 95.1158 47.7731 95.5116C37.8771 103.275 34.9988 108.547 22.1576 107.949C14.7447 103.278 17.1934 98.1147 20.2939 91.568C10.3581 90.5201 6.88787 85.0704 0 78.4056C8.9998 71.1597 8.37497 67.844 20.2148 65.5314C18.0463 61.6061 15.7835 55.0249 19.5182 51.4422C28.1758 43.1371 43.7277 57.9088 49.6437 63.5454C52.2954 60.2784 60.6089 52.2191 63.8393 49.3042C60.017 46.1085 51.3373 35.2696 50.0429 30.3917C46.7319 17.9178 55.4854 14.0347 65.9792 20.2854C66.8061 10.5267 72.0889 7.2327 78.5943 0ZM122.616 78.6751C127.218 82.5248 130.232 85.7854 135.293 89.3882L141.214 89.2018C147.951 86.429 149.486 83.9945 154.451 78.6495C147.083 71.0185 146.023 68.0038 135.397 67.7171C131.615 70.1821 126.034 75.4238 122.616 78.6751ZM3.52285 78.5792C7.31262 82.9668 11.6579 88.5528 17.8521 89.3813C23.5587 89.5101 25.354 87.8491 29.6398 83.7265C31.4312 81.9962 33.2133 80.256 34.9855 78.5059C31.827 75.7169 24.2685 67.6689 20.6621 67.8607C15.0922 67.9812 12.4833 69.06 8.53377 73.1811C6.84461 74.9626 5.17415 76.7623 3.52285 78.5792ZM67.9879 135.264C68.2691 143.157 71.995 149.988 79.0888 153.93C86.3562 146.671 89.1141 146.282 89.6647 135.62C87.8822 131.797 82.0419 125.315 78.7909 122.638C75.3694 126.259 70.6657 131.115 67.9879 135.264ZM89.5403 22.004C89.3899 15.6298 88.6614 12.7523 83.9685 7.73969C83.151 6.86639 79.6901 3.94706 78.6454 3.65104C71.3721 10.0296 67.9914 12.0349 68.2141 22.179C69.8093 24.4876 76.857 33.846 79.2235 34.3186C82.9012 30.5417 86.9186 26.5917 89.5403 22.004ZM109.494 64.9478C112.504 68.9022 115.838 71.8682 119.503 75.1962L121.14 76.7023C123.003 76.215 131.183 68.5929 133.105 66.7647C137.667 62.4267 142.856 51.7146 132.078 51.1108C123.458 51.9172 115.267 58.7167 109.494 64.9478ZM65.4075 106.234C69.4475 103.213 73.2166 97.0571 77.5137 92.9227C73.5165 89.0897 68.3478 84.0531 64.5698 79.9865C60.4211 83.9891 54.3872 88.4062 51.0915 91.983C53.3666 94.9535 62.4416 104.209 65.4075 106.234ZM97.5825 19.6241C89.6652 23.2411 86.981 29.8174 80.4393 35.9309C84.058 39.9232 87.1634 43.3889 91.1164 47.031L92.1689 47.7302C97.0958 45.6635 118.548 17.7024 97.5825 19.6241ZM121.383 79.9182C117.461 84.3766 113.168 87.4533 109.527 92.0302C113.246 96.3677 122.326 103.962 127.875 105.576C130.397 105.99 133.672 106.62 135.904 105.036C137.211 104.098 138.09 102.678 138.345 101.091C139.613 93.0328 125.921 85.4397 121.383 79.9182ZM68.9539 45.0066C71.7689 42.0917 74.5415 39.136 77.2704 36.1409L76.7807 35.6457C69.3295 28.0447 67.1586 20.4462 56.6791 19.0915C42.1246 22.5665 60.2486 43.4483 65.41 47.9923C66.5107 47.0551 67.8286 45.8642 68.9539 45.0066ZM93.2834 80.0431C88.9701 84.2778 84.5299 88.5469 80.2859 92.8366C82.6805 95.4305 90.5771 105.467 92.6655 105.997L93.1512 105.673C95.7931 103.417 104.709 94.7804 106.859 91.9274C103.87 89.339 95.4676 82.7151 93.2834 80.0431ZM36.1841 80.3548C30.8693 85.4205 14.1828 95.9059 21.2039 104.539C23.1944 106.986 28.1144 105.79 30.859 105.252C35.7377 103.427 44.6234 96.0038 48.397 92.3188C46.2467 89.8676 38.6155 81.653 36.1841 80.3548ZM79.0923 91.5277C83.2581 87.1587 87.5056 82.8675 91.8312 78.6564C87.4973 74.3214 83.1564 69.9156 78.7742 65.6362C74.513 69.984 70.1947 74.2747 65.8199 78.5079C67.6703 80.3711 77.6258 90.6612 79.0923 91.5277ZM90.9154 107.721C86.2043 103.386 83.44 98.4231 78.8602 94.2134C74.5931 98.6365 71.0477 103.72 66.8793 107.605C69.2887 110.037 76.9263 118.287 78.9364 119.899C82.6476 116.081 87.0784 111.228 90.9154 107.721ZM96.2886 137.204C100.261 138.323 103.606 139.255 106.075 134.332C108.95 128.599 96.5629 110.967 92.167 109.366C87.6142 113.329 84.4119 117.323 80.3149 121.01C85.5107 126.349 90.3539 133.761 96.2886 137.204ZM108.009 66.6958C103.527 70.992 98.4797 74.3972 94.3507 78.5925C98.9575 82.9757 103.767 86.369 107.973 90.3608C111.537 87.1145 116.893 82.1132 120.203 78.6309C116.275 74.8077 111.768 70.6138 108.009 66.6958ZM92.2737 50.9126C87.7961 55.3775 84.6818 59.9549 80.2711 64.2318C82.4018 66.4451 91.4581 76.1668 93.4004 76.7923L93.9864 76.4693C98.2889 72.001 102.87 69.299 106.991 65.1582C103.661 61.8244 95.4548 53.0501 92.2737 50.9126ZM78.7069 37.5678C74.8896 41.4662 70.8997 45.6783 66.9187 49.3637C69.5856 52.2545 76.8437 61.5554 79.0288 62.943C83.555 58.3779 86.5337 53.6864 90.9704 49.4739C87.2057 46.5117 81.6172 39.3567 78.7069 37.5678ZM63.2784 78.6613C59.4601 75.0093 52.5953 69.7283 49.7872 66.6118C45.7418 70.6822 41.5996 74.5339 37.6023 78.5306C39.5329 80.5614 48.3636 89.5721 49.9608 90.142L50.6987 89.6537C54.9093 85.5252 59.4375 82.7785 63.2784 78.6613ZM65.2094 50.8708C62.6004 53.1913 53.2658 62.3417 50.9931 65.0451C54.9525 69.5119 60.255 73.0046 64.7777 77.1921C68.951 72.8645 73.2083 68.619 77.5477 64.458C74.8261 61.6685 67.0799 51.8862 65.2094 50.8708ZM41.0504 72.4937C44.2582 69.8581 45.7404 68.141 48.3616 64.8922C40.3479 58.0288 33.8076 50.2655 22.5209 51.4953C12.1166 59.8998 30.8 71.8486 36.3768 76.9315L41.0504 72.4937ZM65.1425 109.328C60.0446 114.737 51.3712 124.05 51.2817 131.593C51.1952 138.882 57.3309 138.503 62.2337 136.87C67.4737 133.963 72.3602 125.882 77.4552 121.129C75.0424 118.762 67.312 110.112 65.1425 109.328Z" fill="var(--fill-0, #EDEAEC)" fill-opacity="0.7"/>
</svg>
