<svg preserveAspectRatio="none" width="100%" height="100%" overflow="visible" style="display: block;" viewBox="0 0 80.7941 36.5497" fill="none" xmlns="http://www.w3.org/2000/svg">
<path id="Vector" d="M29.0354 0.0335108C31.1193 0.0697372 34.1785 0.386733 35.7651 1.78447C41.3414 6.69314 33.7907 14.5875 30.9137 17.875C32.9427 20.752 37.7235 25.0931 40.4009 27.7346C43.5057 24.3625 47.1231 21.7331 49.8242 17.9656C45.2139 13.1807 43.0322 10.3701 43.3031 3.69842C48.0798 -1.96195 54.6122 -0.835904 58.5264 5.10824C58.8958 11.5928 56.4566 13.9565 51.4924 17.5701C54.9975 21.1203 58.8766 24.7158 62.5044 28.1784C66.7784 25.3105 72.1195 22.7142 77.1812 25.1656C80.0876 26.5754 81.8404 29.7422 80.1056 32.7852C78.8413 35.0041 76.7538 35.9399 74.4044 36.5165C68.8967 36.118 66.565 32.6976 62.4849 29.7512C61.7254 30.5693 60.871 31.481 60.0403 32.2206C54.0153 37.5852 45.2973 34.829 40.3961 29.2984C40.1587 29.558 39.9133 29.8146 39.6603 30.0592C37.0516 32.6343 31.898 35.3663 28.1433 35.1369C23.3198 34.844 21.2038 32.9301 18.1321 29.709C13.3407 33.2924 13.2522 35.2818 6.52979 36.5497C3.88386 35.8856 1.12479 34.6357 0.228109 31.7799C-0.185121 30.4667 -0.0323756 29.0358 0.64944 27.8403C4.37032 21.1928 13.5739 25.1414 18.2608 28.1452C21.9385 24.7399 25.7425 20.8516 29.4489 17.6063C23.8795 14.0471 21.9373 11.3271 22.3322 4.64634C24.4035 2.24333 25.9354 0.854642 29.0354 0.0335108ZM41.2169 28.5044C44.1224 31.5173 48.261 33.9173 52.4855 34.0893C57.1942 33.2712 58.4717 32.4894 61.6504 28.8939C58.0033 25.5097 54.392 22.0894 50.8175 18.6267C48.1455 22.195 44.2737 25.2169 41.2169 28.5044ZM19.0444 28.8184C22.5582 32.5407 23.9698 33.9173 29.2965 33.9716C33.0474 33.3195 36.8646 31.4508 39.4628 28.6071C37.0411 25.9746 31.6448 21.0841 29.9885 18.6207C26.5104 21.8901 22.5984 25.7694 19.0444 28.8184ZM63.3468 28.9603C66.4843 31.2546 67.733 33.0116 71.3335 34.7475C81.6787 37.1143 81.8318 24.5467 72.3034 25.3588C68.6594 25.9173 66.5023 27.0222 63.3468 28.9603ZM28.9154 1.30146C19.0705 3.60787 24.4515 13.0871 30.1932 16.6795L30.3901 16.5769C34.4807 11.6984 36.2527 10.5271 36.3682 4.25992C33.8805 1.69992 32.4643 1.20787 28.9154 1.30146ZM17.4091 28.8969C13.9055 26.9135 10.6396 25.1777 6.44697 25.3346C-0.666785 27.7044 -0.279363 33.5127 6.66033 35.4025C8.64396 34.8561 9.43172 34.6508 11.2515 33.7422C13.1505 32.7218 15.6962 30.3641 17.4091 28.8969ZM48.0678 1.50071C46.4076 2.41241 44.9894 3.0373 44.5134 5.07202C43.5204 9.32258 48.0359 14.1105 50.7224 16.9905L52.4191 15.1913C53.9643 13.6516 55.5449 12.3203 56.4497 10.3067C59.2322 4.11502 54.8604 0.987472 49.1736 1.392C48.8039 1.41615 48.4351 1.45241 48.0678 1.50071Z" fill="var(--fill-0, #AE1919)"/>
</svg>
